<mxfile host="app.diagrams.net" modified="2024-04-25T19:09:36.790Z" agent="Mozilla/5.0 (Windows NT 10.0; Win64; x64) AppleWebKit/537.36 (KHTML, like Gecko) Chrome/124.0.0.0 Safari/537.36" etag="hGJTKplMxh3q0L_1f-lv" version="24.3.0" type="github" pages="2">
  <diagram id="3Kzvg9HdL2it8RKXYPww" name="A1.1">
    <mxGraphModel dx="1222" dy="925" grid="1" gridSize="10" guides="1" tooltips="1" connect="1" arrows="1" fold="1" page="1" pageScale="1" pageWidth="1100" pageHeight="850" math="0" shadow="0">
      <root>
        <mxCell id="0" />
        <mxCell id="1" style="locked=1;" parent="0" />
        <mxCell id="DvpCGi1ZZNjJYeLoS05y-1" value="" style="rounded=0;whiteSpace=wrap;html=1;fillColor=#000000;strokeColor=none;" vertex="1" parent="1">
          <mxGeometry y="80" width="1100" height="40" as="geometry" />
        </mxCell>
        <mxCell id="DvpCGi1ZZNjJYeLoS05y-2" value="A1.1 Application Catalog" style="text;html=1;align=center;verticalAlign=middle;resizable=0;points=[];autosize=1;strokeColor=none;fillColor=none;fontSize=24;" vertex="1" parent="1">
          <mxGeometry x="10" y="40" width="290" height="40" as="geometry" />
        </mxCell>
        <mxCell id="DvpCGi1ZZNjJYeLoS05y-3" value="" style="shape=image;verticalLabelPosition=bottom;labelBackgroundColor=default;verticalAlign=top;aspect=fixed;imageAspect=0;image=data:image/png,iVBORw0KGgoAAAANSUhEUgAABgIAAAF0CAYAAADhDyIPAAAAAXNSR0IArs4c6QAAAARnQU1BAACxjwv8YQUAAAAJcEhZcwAADsMAAA7DAcdvqGQAAHPuSURBVHhe7d1/bB3lve/7Z+xAj9TQhlvRA+igOCpQCZDihFbqj6PG1tk9VNBcklLntKANibQBiVZKDEnuf43NfycxSZBaJOBIcaha2HH3jhEFwe7ZsoMuZUuUxJGaSqWgOGIL2CAubqFXtyT2c+cz8yziBMeeZ9astZ6Zeb+kxZpZ7LLt5VmzZr7f5/v9GgAAAAAAAAAAAAAAAAAAAAAAAAAAAAAAAAAAAAAAAAAAAAAAAAAAAAAAAAAAAAAAAAAAAAAAAAAAAAAAAAAAAAAAAAAAAAAAAAAAAAAAAAAAAAAAAAAAAAAAAAAAAAAAAAAAAAAAAAAAAAAAAAAAAAAAAAAAAAAAAAAAAAAAAAAAAAAAAAAAAAAAAAAAAAAAAAAAAAAAAAAAAAAAAAAAAAAAAAAAAAAAAAAAAAAAAAAAAAAAAAAAAAAAAAAAAAAAAAAAAAAAAAAAAAAAAAAAAAAAAAAAAAAAAAAAAAAAAAAAAAAAAAAAAAAAAAAAAAAAAAAAAAAAAAAAAAAAAAAAAAAAAAAAAAAAAAAAAAAAAAAAAAAAAAAAAAAAAAAAAAAAAAAAAAAAAAAAAAAAAAAAAAAAAAAAAAAAAAAAAAAAAAAAAAAAAAAAAAAAAAAAAAAAAAAAAAAAAAAAAAAAAAAAAAAAAAAAAAAAAAAAAAAAAAAAAAAAAAAAAAAAAAAAAAAAAAAAAAAAAAAAAAAAAAAAAAAAAAAAAAAAAAAAAAAAAAAAAAAAAAAAAAAAAAAAAAAAAAAAAAAAAAAAAAAAAAAAAAAAAAAAAAAAAAAAAAAAAAAAgAwi9wzAsdb2uU3pjR8r0s1zrHPP803Hj1Pp5jn0uh4yHUVRYxsAAAAAAAAAWo5EAGrFWqugvoL7Pe6xOn7otcZ+O03Fjxn3/Of4Man9KIq0DwAAAAAAAACFIBGAynIr+xvBfgX/L7S6P0RKBqhy4LjbnqKSAAAAAAAAAEAeJAJQCdZaBfwV6FfLHj3Pb+9TFaoeUNWAkgOTURRpGwAAAAAAAAAWRSIApeRa/GyIHwr8N1b+15GSAUf0TGIAAAAAAAAAwEJIBKA0rLVa6X9X/FDgX9s4V6Ni4Gk900oIAAAAAAAAgJAIQNCstVr1f2v80HNZ+vuHQrMFDsaPcZICAAAAAAAAQH2RCEBwCP63BEkBAAAAAAAAoKZIBCAIbtjv1vih4H9d+/23i9oHNZICaicEAAAAAAAAoMJIBKCjrLWb46dG33+0l5IA4/Hj4SiKVDEAAAAAAAAAoIJIBKDt5q3+VxKA1j9hSKoEoigaTXcBAAAAAAAAVAWJALSNtVar/hvtf4L34ccfmdfef8Ptpd766B3z1of/4fYW9pUrVrut1PKLl5svf+FLbi94mh+gtkH7aRsEAAAAAAAAVAOJALScG/6rBEBQ7X9efft4Euz/4/tvJAH+tz98J3n9d/HrrXLlJZebK5f/52T7xit6k2clDgJMFjTaBg0zXBgAAAAAAAAoNxIBaBnX/39X/Ojo8F8F+l/7f15Pn99Pn5UACJGSAVcsvzx+vjpJEFwb719y8XL3bztG7YJICAAAAAAAAAAlRSIAhetkAkABfq3016p+Bf1bubq/XVRFcO3/8aUkMaAqgg5WDpAQAAAAAAAAAEqIRAAK42YA7Isfac+bNpgf+H/17alktX/VqULgxitWdzIxoITAIDMEAAAAAAAAgHIgEYCmWWsV+FcCoC0zANTPf3L6JTN56qVKrPhv1t5vP2j6Vn7T7bWNkgAPxw+GCgMAAAAAAACBIxGA3Ky1K+InJQDUCqilGsH/Z/70Qi1W/ft4/Ja9SYVAh6hNkNoFqUoAAAAAAAAAQIBIBCAXa+1Q/LQ1figZ0BIE/7M5cufTIQwUnowfahc0le4CAAAAAAAACAWJAHhpxxwABf4nXOsfLO3oP/yr2wrC/vihCgHaBQEAAAAAAACBIBGATFwboF3xY1vyQsG0+v+Z1/7F/PL3/5QMAEY2GhT85MbH3N7SBkcnzNSp98xd6643m/uud68WTkmALVEUjae7AAAAAAAAADqJRACWZK3dED8diB+FtwF69e3j5he//ydW/+f0lStWm8du2ev2ltY/fMhMnngz2e657HNmc98NZuvNa82Kz34mea1gSgQoIUB1AAAAAAAAANBBJAJwQa4KQAkAJQIKpfY/z7z2gvnd28fdK8jj9htuM9u/dp/bW9qanT83U9Pvur2UkgAbvnq12TXwjSQ5UDCqAwAAAAAAAIAOIxGABblZAIfjR6FVAEoAPHr0CfPWh++4V9CMe9feFT/udHtLizY95LYWpnZBLUoIUB0AAAAAAAAAdAiJAHyKtVbDgAudBUACoDUev2WvufGK1W5vcTN//Zu5dMtP3d7iWpQQmI4fSgZMprsAAAAAAAAA2qHLPQNKAPTGj2PxZmFJAM0A+O4/3mF2HdlNEqAFll+83G0tberUuS2BFjM6ecKs+tHjZssjz5vp9/7iXm1aT/yYiI+xoXQXAAAAAAAAQDuQCEDCWrs5fpqIH73JC01SAuCeZ+83d8cPEgCt8+UvfMltLW36Xf+AvhICa3Y+YYbHXk4qCgqyKz7elBAofPg0AAAAAAAAgE8jEQAlATQQWI+mA7MffvyR2fXi7iQBwCDg1rryksvdVjancq7sVwJgaOy3SUJAiYGCaAbFyfjY0zMAAAAAAACAFiIRUGNakR0/1ApI1QBN++Xv/8l896k7zDOvveBeQStdufw/u61spqaztwZaiFoEqVVQ//Chpv9bjhJPqgwodB4FAAAAAAAAgHMxLLimrLVqAaRWQE1XAagN0Mi//cz88f033Ctoh3vX3hU/7nR7S1uz8+dFBfAT225emwwUXvHZz7hXmjIaPwajKJpJdwEAAAAAQGVt2LfCLDszvz11r+laKkYVTZk5m8YNovh5bOdUsg0gExIBNWTTeQBqBdQUtQF69OgTSSUA2m943U6z/pqb3N7Sok0Pua3i9Fz2OXPgR98xfddd5V5pir7A+0kGAAAAAABQEd/fo5bAvaara6VJF6X2uEeRJpN/RvaIsV3TxsxOkSQAPo1EQM1Ya4fip13pXn6qAtAsAAYBd87jt+w1N16x2u0tTm19Vv3ocbdXvAKrA5QEUDKAL2wAAAAAAMpm08gGY6J1Jp0JOH/Ff7spvjAZ/xxHzLJl4+apwen0ZaC+SATUiE2HAjc1D4AqgHAc/Yd/dVtLm/zDm6Z/6JDba40CqwP0Zb0xiqI0ow8AAAAAAMKkFj8XzW0wxt6qvfTFwER22BzaoYWxQK0xLLgGbEFDgTUD4J5n7ycJEIArL7ncbWVz5MS/u63WUdWBkg2Doxo90ZTGEOFChlgDAAAAAICCqeXPwMgBc9HsB8YkC0/DTAIA+ASJgIpTEiB+UmS2qXIsBf9/ePgeBgIH4srl/9ltZTP93p/dVuvtf+5oMphYiYEmHSAZAAAAAABAQAYe2mwGRo6ZKFKsqRz37HNJ5wGg9kgEVFgRSQC1Arr/Nz8xI//2iHsFIbjxCr8/6dT0e26rPaam3zVrdj5hxl953b2Sm5IBTQ+2BgAAAAAATUgTACfd6v9O9v7PgzmEQIwZARVl00nsSgIoGZCLVv8Pvfg/qQII0N5vP2j6Vn7T7S0t2vSQ22o/DRLet7nf7eU2GkXRFrcNAAAAAICfgd29xkZ9pqtrpUljJguZjv/d8fh5yvxqB3PrRO+b6doXb2n4bzlZ28/fEyARUElFJAGe+dMLZuTlR5KKAITn1z/4hblyebY5Aenq/J+7vc7o7fmimdi1yaz47GfcK7mQDAAAAAAAZKc+9lF0V7yl/vW+MRK1k5k0kTloDm0fT1+qmU17hoyNdrm9EptbY8Z2UhWA2iMRUDFFJAHUBoiBwOG65OLl5sidT7u9pY1OnjBbHnne7XVOz2WfM4d33JokBZpAMgAAAAAAsDi1sTFWAeye9IWmTRsTDZuxB0bdfrWlVQBlbAG0sLHtxD+BGDMCKqTZJIBW/+96cTdJgMB9+QtfclvZHJ9+1211loYH9w8fShITTdjMzAAAAAAAwIIUwB4YmTBpH/uikgAS/7fi/6Z65G8aUXVBdSVJlC7FlqqRBADwCRIBFWGt1RdcU0mAe5693zzz2gvuFYTKe1DwqfYOCl7MzF//Zmb+37+5vdxIBgAAAAAAzqU2NqbrWLzVyl72Pcaaw2Zg5IDZsC93J4ZgJe9hcr9dpd9t2j0DtUdpTAVYa3WCzp2t1TDgB/73T8xbH77jXkHIHr9lr7nxitVub2mdHBS8kImhTabvuqvcXlP2R1E06LaBMKUDyXSO7jVdupju+nx80m6cq9PX89HFbOOCdsZEyUCzWDRl5uyMObNsyowPqqdpfaX9YPXdGCYGlqHVktWQgQ714/gH0E4hnw8bOC82RwH5i2YVvG73Sv0p09290Tw1WI1As5IbxmxOdypl0oxt73fbQK2RCCi5IpIAqgRgKHB5aD6A5gRkEcKg4PPZQw+4rUJsiaKoHj0aEbakh2Z3r4nmeoyN1sWvqEqryFLkvDQQazpNFERTxs5N12ZIFokA1B2JAABIkQiotjQJkDsmUoAZY+b6S3+NXd0kgJAIABxaA5UYSYD60XyArEkAmZoOpy2QaGBwwQ7En4OqXqwgVLrZUF/QTQ/tS24sB0ZsWoJsDxgbaSCZbjRDSAKIvh82JD+XSpj1c+rn1c+tn1+/xw/2hfKzAgAAANl1PgkgqvqdKPU1dbWTAEJrIMAhEVBu++JHri+8Z/70gvnh4XtIApSM73yAI394022FoeeLn3dbhVIyoJMXfqiDs4H/Y/HNxgdJUN3abfG/CXt12YX1JT+/fo/Z2ZPx76XHgWQwGIkBAAAAlEHaDiiEe8EV8TX14VLODPj+Ht3TVHtxXWRPuS2g9kgElJS1VkmApk7WV15yudtCWXzFYzaAhFYR0LvyMrdVuAmSASiULuIVFB8Y0SAwOy/wX9XjTMH/+DvFHnCJgWNp4kMtjwAAAIDApAHsds8EWEyvuWhWcZrySFtplutnBtAUEgEl5Fqh6Esvt/XX3GR+/T9+YYbX7SQhUCI+Q4Jn/vq3ZEZASFZ89j+5rcJp5cXh+LNRvhUYCMf84L9W/SsoHtbNRTv1pomPpJVQWi2gqggAAACg01TBGmYAe3NprpnT9/Cw26s220VrIMAhEVAy1lq1oVBwqhBKCDy58VFz+w23uVcQKt/5AJOBtQWSddf/F7fVElrRrP6QgB9drCvQTfD/QtJqAVVFKClApQAAAAA6aTZpCRQmm7RwDl/6HtZjIZ2dIxEAOCQCSsRaq2BM4RlbBZe3f+0+8/gte70CzWivvpX/1W1lc+REeImANuiNPyfhXhQiHFr9r3JiBbaTIboV74tZnJ55lQLx46HNpeyFCgAAgHJSO5uw53T1JNfIIUvbKpV11hmAJpAIKAnX8kTBqpYFXNR25snvPZqsPEd4+lZ+021lM/mHf3db4ei5LPuw4Lc+esdtedscf14I6mJhKoFNV/+fdOXEDMbNrzepoNB7qSoBhgwDAACg1aJoq9sKmN3lNsKTtgQK9+drhWXLqAgAHBIB5aGAVctbMVy5/HLz2C17SQYERpUaPn+T6ff+Etx8AOm57HNua2nPvPYvZteLu92etwOW4cGYr5EA0CDcdPU/q9iLsyKpEkiHDB9wq7QAAACAYqULT8rQxrMn2Gvi2WSgcb3uhZ4aJBEAOCQCSsCtbm7bCmcFnUkGhKWvx7MaoCJtgZ557YVmkgEMD8ZCCQC01mYTRRPxez5BQgAAAACFOnOmPLO8urpudVvhSK/PmYcG1BiJgMC5Vc1t73neSAZcecnl7hV0Ur9nW6CnX3ndbZWfkgHP/OkFt+dFq0WYF1BXJAA6re+ThACDhQEAAFCEKAovuH4h1oYXcK9bS6AU1QDAPCQCAuZWMxc+HDgrJQMe+rsH3R46RX8H//kA5a8IePXtKbdlzK4ju83kqZfcnpcN8edIg5BQFxpcu2nPkJmdPRbvkQDovL74UkODhQ+4Um4AAAAgrzJVnPYk9yahCH/IcquQCADmIREQtlyDLBUEVo/4Iqg90O033Ob20Am+bYHGX3ndzPz1b24vHD7zARaiZMAf33/D7XnZ5yprUHWbRjaYi2aPGZusdKEtVFg2J8kZJWkAAAAAX2VcVLLsTDj3ofWsBgBwHhIBgbJpGZn3atbRyROmf+iQWfWjx5PHlkeeb3po7L1r70xWpaMzfNsCHQl0PkDPFz/vtvL58OOPzAP/+yfJcw7MC6iytA3QYWOTCipWnYdrRZKkGRg5xvwAAAAAeDlzpnzX+VFXGD9zmkSp6/U3FQHAPCQCAuQClt69zRXwV+C/QVUBSgys2flz0z98KHe7GCUBqArojDxtgVQRUFVvffiOeeA3P3F7XnThwwqIKvr+nm2uDRBDr8qjN5kfsOmhfUGVSwMAAABFiubCSATMztb3Xjiyp9wWgBiJgDBpVatXcEStYDbuedrtfdrkiTeTSoHB0Qn3ip/11/53t4V28m0LpGRQUW2hiqZjsAi/e/u4efToE27PyzZrLauQq0IBZFUBRJFaqBFMLiPN77holmHCAAAAQGuxaApAgkRAYGw62NQ7WLlx5OlMAeD9zx1NKgR8e8hfufzyZF4A2su3LdDByRNuq/yu/cLVbuvTHj160Lz69nG35+UALYIqQG1lLpo9GW9xQVt+vfGliFoFMdQbAAAAKNrAQ2o5XeN74GjKbQCIkQgIiLU2V/uS4bGXvVZba9W4WgX5JgP6Vv5Xt4V2uPKSy2vdFmipuRT3/ybXvABaBJWdhs2qrQxVANWiyo6BkQO0CgIAAEBlzJkZt9VB9la3UU9zNoC/ARAOEgFh8W5xoaD+0Nhv3V52+t8Ne/7vvnLFareFdvBNAoTcFqgVkuHB+eYF0CKojNJWQBPJsFlU1eakVRDJAAAAAFRDCKvRqaIG8AkSAYGw1urk7HWCXmouwFLUJsinKmD5Eiu0Uazbb/ie28qmSm2B5JKLP+u2LqyJeQHew7jRQeohf1EyEJgETvXpb32SuQEAAAA4x692TLqt8li2bNptdcamkSokAZRMGTWRHTYm2mKs7Z/3GExej6L98f+Njo9Pr/4/s4zWQMA8JAIC4HqWqxrAy+DBiaZXgPu0kmFGQPuo+kJzGXyMHgk/ETD5h+wtrL68yIyA+TQv4I/vv+H2MuuJP3dDbhsh0zwA06VWQGrrhHqIvxPjvznJAAAAAJyrTEHdGfPUYGcTASZa5zbKJv47R1vM6e5Lzdj2NfFjizm0Y8iMPTCaJITOPvYnrx96YDD+v+mPH5ea7u5VJjIb4//GaPyYNuODtAYC5iEREAYNSfQKcimAP1rACvBTNWolUybrr73JbWWj48F35kPofCpQhl78n27Ly1Y3lwOh0mAr5gHUlZIB3glyAAAAVFgUlakqoPM/a/la4k4nQfwk+P/AaK4gvpIvh7aPJ8mDse2r3KsAHBIBHeYCkV49rxXw3fLI824PVaMhueuv8UsEPF2SIcFT0++5raX5VKCoIiBHi6BclThoEyUBjKWFU33NmNPdWskDAAAApOzsQbdVAlH+Ps5FSOdulanCdjS+/l+TBPEBtAyJgM7zDnQpCVC11d846/YbbnNb2ehYKKI6pB3+7Hnc+iQDcrYI2mAZHByegZH4vEgSoMZmjJnrp4wXAAAA5xjbqdZAHW63k8mMOd3V2YD2xbNlus8dTVbwc/0PtByJgA5yAUivk7N6rPv09V/K6p7L3NbSPvz4I7eFVlp/7X93W9mUYTZAw9T0u24rmys85yTkbBFEwDkkSRLAbE53UEvWbnQ3eQAAAMB5omG3EbLxzge1bVmqAdIkAIC2IBHQWV4ByKQl0M+KbQnUd91Vbmtpr/mvtoYnzQbwHRL88LOvuq3w+Q63zjowuCFniyANDibwHAKSANBQMA3+AgAAABai3vGhVwV0d3c+WWFLMSh42pzuHnTbANqARECHuMCj16DSh5876h1IXUxvzxfNis9+xu0t7a2P3nFbaJV7197ptrJRhUiRx0Sr+VYEfOWK1W4ru1/+/p/yHKu74s8kA2k76ft7NDSdJECdWTvobuwAAACAC4tMuMHjyA4nA2s7L/yKAGtpBwS0GYmAzvEaEKxg79DYb91eMe7qu95tZZOj/zo8KOjtWw1wsCSzAeZT8iKrG3MkAtTCauTlR9xeZkrKKRCNTtBg4ChicHO9jZpf7djvtgEAAIALSwfKhjhUdsp8vKzz17TpoODQF7pNUgkMtB+JgA6w1g7FT17VABoQXLQNX/Vru/Lq27RsbqV7197ltrJRcqgsQ4Lnm5p+z21lk6cqYPLUS/HxetztZbaVqoAOUBKAwcB1N05fUAAAAHg53a3rx5BWk8c/y1wYK9yXnSlDNUAZZj0AlUMioM1coHFrupeNVlBPnsi+ijoLJQF6Lvuc21uaWq1QEdA6Cnb7rn4vYzWAHPdsD9S38ptuy8+uF3e7rcz02aQqoJ0GdscXqJZKgHqbcjdxAAAAQHZJwH2uP94KJBkQDZqxnWGsnoy6vBaedsAU1QBAZ5AIaD8FGr1WHRc9IFi23rLWbWWTY3U1PPhWA2hw9P7nyjMkeD7fpNaNV+RbzPDWh++YZ/70gtvLjKqAdknKVbsm4i3e7/rScLB++oICAAAglyTwHkIyINoS1KyraC7sRIC1B90WgDYjEdBGeaoB1Pql6GGwqgTou+4qt5fNxPRLbgtFW3/tTd7VAOOvvJ4kA8pIx7PPMf3lL3zJXHmJ3+yEBs0K0MwAD/qMUhXQDhfNkgSoN63g2kgSAAAAAE3peDIgsCRAouvzbiNMkaUaAOgQEgHttSF+ZA58KdA7eFCxsmLtGviG28pGbYHUcx2tce/aO91WdsMFD45uNyUyfORtD6QkwC9//89uLzOqAlptYEQzAcLvW4kWim/WQimdBgAAQLnpurK7e0281c7ry+n4mnZNeEmAmLUh32vNcB8AdA6JgPba5Z4zefi5o4Wv+lY1wOa+691eNs+89i9uC0VTS6Arl/utdm9FlUi7HfFsD7T+mpvclr9f/v6fqAoIyaYRJUQ3pzuoJ62a4uIfAAAABXpqcNqMbV9jorYMoR01p7vXcE2bC+8Z0EEkAtrEWqvAV+Y+ba3qAe9bDSA5+qwjA7W7uf2G77m97MpeDSC+FQFqD6RHHjmrAvyGNiCbH+zrMdaoGgB1Ze1gkKumAAAAUA2HdgyZ7u5V8VYrrjkn4+vZfjO2fUvgLS7DnREQ2SNuC0AHkAhoH6/ZAK2oBljx2c+YDV+92u1loySAhq6ieNu/dp+55OLlbi+bKlQDNPgmA26/4Ta35S9HVUCPS96hSLOzSgLQdimlG4dJE0X7k1VLuqHQQzctY9ujCz5Od1/6yf+tgurpiqfx+FGGlTWj5lc79rttAAAAoDXS6oAtybW1rreTNj656bp9NG0DtL0/vp4tQ3/7cBMBtquZvwWAJkXuGS1kre2LnzI3+1cCYNWPHy88ETA08A2za+Drbi+be5693/zu7eNuD0VRz/u9337Q7WWj42HNzicqkwhQi6oD933H7S1NgfzvPnWHb0D/E2rD5DmPYSqKIvWZRBE27RkyNvJqj1YxuoEYj792j5jursnk5qQVvr9H3ze98Q3PuvhZ26EkXkaTm7F20nsRRcUP2imKkjnluJFEWQ2M6PjXeSA8HP8A2ink82ED58XWG9ita+QN8T3J6nhPgfIL9dHXdfp0snJ9zkyW8u8yMGLdVng41oGOIhHQBtZarYLNvLp4/3NHzeBosbELVQOc/OndyXNWr7593Nz97P1uD0VRFcCvf/AL72qA4bGXzVAF2gLN98GBH3sdkyP/9kiyuj+PnO97fxRFXKQ0SxfdpuuY26uT+AYiGjd29mDH+ocqGN7VdWv8RaTZDJ1aGTRlTnf3t718mkQA6o5EAACkSASgbkgEALgAWgO1mLVWgRevFiMPP1v8bIBtN9/oFXCVR48edFso0vC6nd5JgFbNjOg0//ZA/jMVGpgV0Eld+9xGXYwmF7hj21eZQw8MdnSImC6yk58h/ln0MyVlzUl1Qrt0JgkAAAAAIDwkAYCOIhHQel5JgFb0gFcCYOvNa91eNm999A4tgVpg/bU3JW2BfA0enCi8VVQINAvDx5XLL0/ew7xyDL7ebK2lp30zvr9nW/zPsFdgFWMm6def9vjfEuQFrn4m/Wyn459R8wWa65WaxYwxc6EPUgMAAAAAoBZIBLSe14pi38BoFvmqAZ5wWyjKl7/wpWRAsK+p6XeTBFEV6XfTw4dnn/9zaPB1nmSAe4avDftWmKjycwHSBICC64d2DLWs93+RFJjX0F5VCZhIfftb8TMrCdDf0WoIAAAAoG7SmWEAsCASAS1kPXsyT/7hTe+g6FLyVgM885p3sBSLUCugh779oHdLINnySLX/Fu2uCsgxY2Cre4avi2bVEqjKFRXjprt7TZIAKOuq97EHNMS3kRAo8HeIOtsSCQAAAAAAnINEQGt5VQMcbMGq7w1fvZpqgAA8dsveJIDtS4Oji04OhUbVDr5tj1RZkSepIn98/43k4aHHWtvrtpHVD/Z5z0cpkWk3A2BjKSoAslBCQFUNUbTfvdKEaEvy3wMAAAAAAMEgEdAirq+4KgIyUSC0Fe1fdg18w21lQzVA8TQcWG2BfGlWxPDYb91etflWBSgJcPsNt7k9f788QVVAy83OHnBb1aJA+enuNZUccqWqBg0WTocK501wjJIEAAAAAAAgPCQCWidzEkBGjxSfBOi7/irTc9nn3F42VAMUS0mA9dfka2Oz5ZHnKzkgeCH7n3vV+3fVrIArL/GvspDJ6ZfMhx9/5PYy8fo8117al7JqvSlnTGQ2JoHyqg+/VZJDyQ4F9f2ozZBaDAEAAAAAgMCQCGgdrxXEDz/7qtsqDrMBOquZJMDw2Mtm8sSbbq/6lATIMyh7+Fs73ZYfJQEmT73k9jJZ4WZ+IIvqDQieSgbfHto+7varT8mOJKifeXbAlDndPei2AQAAAABAYEgEtIC1Vr2xM/cU15BgtYEpkioBNB/Axy9//89uC81qJgmgmQBDNWkJNF+eqoAbr1ide3BwjqHBt7pnLKZ61QBaHd9f28G3SZufObUKWiwZoCRAf+UrJQAAAAAAKDESAa3htXK4VUOCfWiFNNUAzVPv+sdv2Zs7CaBA+MY9T7u9eslbFZB3cLAGBqsKxgMVAVlUqxpArW4IcCsJ0p20ClooGTIT/7uNJAEAAAAAAAgbiYDWuMs9ZzL+yutuqzh39V3vtrJREsCzZzrOo4HAT37v0WSVel4bR54uvDqkTFQJ4fv7Kwmw99sPuj0/nlUwtAdayg/2qRqqKtUA9Luf76nB6WTV/7nJgJmkWkD/DgAAAAAABC1yzyiItXZF/PRBurc0JQGKXgGutkAnf3a328vmu/94h3nrQ6/V0Zjn3rV3JcNrmzE4OmH251gRXzWqZjm8w78Lz8i/PeLd7kfDhn/9P37h9jIZjaKkZzoWMjByIP7n5nSn1EgCXMiGfSvMRbMT8VZvOjw54LkJalMVRfpZw2RtfzKYGSklEs+cUTJRek2X0fVUNnMmfR8jO1PbNl4LGRjR8R9mcpbjH+2i761lZ9KWrVFXj4nmGueZpTXOLcuWTZP0LrmQz4cNnBdRlNCvgce2E4csQtqS1/+7zURTZi6+Zua6ubb4ABbMWqsgmIJhmWx55HkzWnBroG03rzX7NmvhZjavvn3c3P3s/W4PPr5yxWrzwNd+lFQDNEPHgI4FpCaGNpm+665ye9n98PA9ScsfH09ufMzn7zcTRdGlbhvzpQHizEnQgJEEWIoCtnOzvcEPTyYREKb0pqXXdHWtjN8DBed04+Jx85KJWlXpxmY6vsk5lQTzziybql0LKxIB8Xuwuze5QTbxsWYjlWwqweRzzOk40nFz9lgiKBymxndT+rdeF7+iv3XmmW0Z6e+uY+GIsV3x9uwUQZSSIBGAOgn9GphEQHaNhTJd8fnr7HVM0eey9Lo5UoJg7lSyzbmo0vgAFsxaezh+ytw+5NItP/UekLoUrab2mRGw68XdzAfwpJXk6k3ft/Kb7pX8SAJ8Wp6qFlHP/x/+871eba5uv+G25G/pYU2kL0mc6/t7tsUXD/vcXlkx9LZKSAR0XpIgnNsQX22ujn/fNAHQWQriTcU/yxET2cnKB/DqmAhQ4N9G+uwrEKzfPXtliR99T0zGx9Hx+HcZJxjcAe37Wy8lDaBY+3QtzitlRSIAdUIioLzSwH987Zx8tzUWzHSKrnOOJIsgODdVCh/AgllrtSI204VoK9oCyQcHfmxWfPYzbm9xCpiue8K/DUtdKfB/xw23NTUHYL5WHQNVMDTwDbNr4OtuLzvfCpcc7YGGoygacttoGBg5Gf+zkxcqzZoxp7tXkQSoEBIBnZGswO6+K/79Qgj8L0WJgfgmxzwdfIVLHnVJBJw95rQQp1PfQ/ruGK/ssRQCJRYvnu0z1ujGRX/rTgX+l1Lt80pZkQhAnZAIKJdNI/F3WrSuw9cxS0mvc0x0xJzuGueeudz4ABbIpje9mU+4rWgL1NvzRXNs99+7vaVNnnrJ3P+bn7g9LERtY9Zfc5Pp6/mmuXL55e7V5k3+4c0kCVB0RUiV6FjWMe3rmT+9YHYd2e32lvbrH/zC5287FUXRGrcNCf1iM5O5NaziqxgSAe0TRiC2WdUL5FY5EZD2fd8cf8a3xnuhHXPuZnnuYb5XCqAASRr8L+MMoun4GB03XV0P006qw0gEVM/AQ/E5wd7l9gITHTRjD4y6ncVtemhf/LcveuGEEqUhL8Zo03E+Nxjs97CunU2XrmFCTmxfSHqdY+1BzlnlRCKgQNZarRLele4tbdWPHjfT7/3F7RXDd9AqbYE+TYH/a79wddL/XxUAl1y83P2b4tAOKBvfxNZ8Pse2WgOpRZCHS6MoIgveUPYhwdYOxhcx+90eqoJEQGudDcTqJjz0lf++ZuLfa7T0wbsqJgJUMj87q2vtstw4x7+jR0AIqaTff3x+scn5pczVhvOpSuBhqgQ6hERA9WzaMxSfIzLHXtoqssPm0I5sFeRlODbLKrTPVNiLGPKKr5OjYa5zyqXLPaMY6uOVydT0u4UnAcR39bTaqNSVAv4K9t+79i4zvG6nefyWveboP/xrMjx2+Fs7kyoAkgCdpc/J4Gi+OF7yN7z2Jre3OFXGeOJi7VwKyJSVeh6SBACyUoBOyb+LZk/GNzKaC1K1JICsiG8et5nZ+HfUDbqSSugs3Txr1aT+JmniuSyr5+Jjxx6Ij6P4WNLqVSxKKyR1ftHfOQ3wVSVQImprdJhjAQBqRtfOuoY5e+1cpe+2+HdJrnM+SJJzul5D8EgEFMRaqwM+843i5B/+3W0V6/MZZwM0vPXhO26r2hoBfwX71QamEfB/LN6/d+2dSdC/qL7/i1ECgCSAn/3PHU3aKOWhZID+9kv5nX9CLHPSr/KSnoalK2dsmDHd3VvcNoDFNBIA5QvENiutLCF41zkaRq+bZyVnyqtxo3yMxNIC9J4kq2K7jsV7Vf+cNY6FkxwLAFBh86+d02uYKl87r0gS+Lpe43o5eCQCiuO1Iu7pV153W8Xq7bnMbS2tDtUACv4r8N8I+CvYX2Sf/6w0B6B/+FDhMyHqoplZCg99+8Gk+mMpnlUB3Lg1pH17y8naYXr2Akv4dAKgrgjetVu6OvyYWz1XlZvnXpdYOpx8tuqucX5J27jV7XPV446FCY4FAKiQpIpxz1BNr53j6zWul0NHIqA4Xgf55Il8K5yRjQK/SgAo+N+JwP9846+8blb9+HH+5k1oJFLyUHsnJYKWSgZ4VgX0uioglLct0BQtgYBFfLoVC1Jng3fJoDe0hG6g09XhVX2PN8SfLVUHlLnKIb96B0nO15e8D8kxDwAotU+qGAOdX9E+jevlw7QLCg+JgOJkbhWSt80JslFfeLX96XQCQMFrtQFqZjU7ztK8gLxtlbIkA159e8ptZUaGu8xtgTQgGMDCVNJb/lYsrRZ/B3QdS5Il3OAUR++lkiz1uIFeEd8k70t+3zodQ7p2uGj2GEGS8+j9UAUMCUYAKJ+0inEi+V6vThVjEfSdf9LFDRAIEgHFyRwUPHKiNfMBfC1vwSDcTlMSQH3hO00tgFQFQCugYun9zPueNpIBfSu/6V451x/ff8N8+PFHbi8TbtRMVNZZCRoQPOm2ATSkbTomkpJebmKyUbKEG5xi6CZa72X9Eu19ye9d9RL6NMlzOBmYm7TawgLia8uu+laKAEAZna1iZKHgwlYk3/1aPIMgkAgogLXWKyDYyoqAqen33NbStDpawdGq0FDYTicB9Ldds/Pnycp1qgBaQ+9t3s+Qjve9334wSRgt5LX333BbmTAw2NpyXuwwIBj4NFUBqFUJNzF5pDc46nVOdUA+yWC5LvWJr+v7p+qAicoGgJXkUBWAVgZiaWmlCOcTAAhZuoCGCrestHhG7xdzcTqOREAxvBIBanHSKn/2DD739Sy8OrpsFOAdWte5JIBWqauHff/QoZb+fZFSu6Vm3mcljG6/4Ta3d5bvnAD3XE/pF3gZ34NxBgQD8zRW6VIFUAS1VKK1h68kCcDxl2gEgKtEyY10GDA3/n50PqlX2ygAKAtVgqYLaLjm89ObvG9cK3cUiYBirHbPS1LwspUrxX1XSv+f1yy8MrpsFNRt90yA6ff+YobHXjarfvR4ukqdYcBt0xgerL9BXtu/dp8ZPi955DknYIW1tr43tbNz5Vw1bO3DbgtA2opFATpW6RYn/l7oim9wFNzGks4mAXDWZlOFuQFpkvGA65eMfNJ2WQRMACAcagWUtrkjUZtP/L51TXCt3DkkAoqR+eLMp3VPHr6rpG+8YvUFe6aXye03fM9ttZYCz1r9rxXpSgAMjf22qWA08lMyoNlBzOuvSQdLN1pkaU6Ap/remEXZE6ABYTYA0JD0tE9asRBgagl7oHIru4tGEmAxaqVT3mSAfu40ychNfvNcwIRkAAB0VCPBTSugIsTfbbpWJhnQCSQCipH5wux4i9vGKCjqmwzQqugyzwpQIqNVP7/ez/FXXjeDoxNJ7//G6n+9hs7Tsa7KgGaSAZqV8esf/CJ51rDgtz56x/2bTOp7U1bK+QDRQbcB1JsuulnJ1A7VWNndCl1dt5IEWFJasVO24yetNNLQZwLXxSEZAACdRIK7RUgGdAKJgCa51iCZL9CnTrW2IkAOTp5wW9k0BqiWlYYEF0FBZbVWUrufxor/S7f8NNne/9xR7wQL2qOIZIA+A6oMUIuptz/8D/dqJmVcFV+Ust2MzpixB0bdNlBfySp1ArBtVO6V3a2igXHIolzJgCRQXeuhz61EMgAAOuFsEoDzb0uQDGg3EgHN8+oR3o5g8ugRv0SAqEWQeqaX0Ze/cLXbykYBYwX2FfBXAFkr/aNNDyXPGvardj9a8U/Ln/IoIhkg+gxc+4Uvub1M6jkj4Pt7yjgfYNw9A/WVtqrhQrv9yrmyG6HQ8RN+8o4kQDuQDACAdiIJ0CYkA9qJREDzMp8QFKRsNlCZhf5/qI+9L62GXn9t+YYHK4mRlYL7q378eNLqRwF/DfhlpX81FJUM8GwzVdcLgvL93pF52m0B9UQSoNNIBqAZG9xnOEwkAdpJyYDDnEsAoMVIArSZ3Ueiuz1IBDRvpXte0tSp9gWch8d+67b8DH9rZyWGB1+I2ia1IxmDzmgkA9qZ3HHtweolisrWEmnGHNpORQDqiyRAKEgGoBmbg1wtRxKgE3pccAoA0AokATpBiW6uk9uAREDzMp8YpqZbPx+gQSvf1fomDw0P1uDUKlp52efcFqqqA8mAOrYHKtvvTBIA9bVpz1D8T5IA4SAZgCaodD6g1XLJcdylRCPHc/v1mk0P7XPbAIAipS35SAK0XyMBgxYiEdC8zBe+f27zSnS1vskTDFVrlMdu2VuaZMBbH73jtpa2ue/65IFqU9WHkgGa9dAGdbxAKNmMgOiI2wDqRauHbbTL7SEcSgYcdtuAp4DawqTHMYGSTtHQ7U0jG9weAKAIaZKVc2vnkOhuscg9Iycbc5tLUmBSPenbqbfni+bY7r93e34+/Pgjc8+z95s/vv+GeyVMj9+y12tOgGx55PlccxRQPvs295ttN691ey0xHEWRVtzWQ1om+YHbK4fT3Zea8cEZtxeupOWDvcvtoWFse7/b8qOh1lEU7ooSa/vNr3ZMur3ipe06jrk9hGk0Pr63uO3iDYzo+C/jcHcsbTw+dja67c7QTboC0ei0GdPdvcY8NTjt9rGQMpwPW31dUDWqeAx1sUNkh82hHdnuD/mubp08n6n0fizcmTx1wjmxZagIqDhVBGgwbh5lqQz43dvH3VZ2B+77jhka+IbbQ5Xp+Ffip4UyzwmphGVnyrbyb7oUSQCJ5tRySTcCPM59wFfariPcJAgawuz5jjLY0NFjR6vQSQKEYoWZTVpYAACakSyisaxED0UUHaCVZmuQCGiCtdYrQNHuaoCG/c8dzb36vZEMWH/tTe6V8Eye+r/dlp9dA19PEgKoPh3/a3b+PJmd0QL1mhEQdZXt92UVAeonbdfBhXMpxDecIfV8R4nEx04nbpB/sK/HWEPgOSx95vt7SMwAQF7pIhpm3oSlx1w8R4vTFiARUBODBydyD09VMmD4WzuDTQaoddGrOaoCRPMCSAbUg47/NTufaNfcgOpKV62Xh7X5Tg5AWaXDgamkKI/0xpMVT/CnVn3tD8inq885XkMTRbs4jwBATmnAmYUZoVH1odq9olAkApqTOSDWopXImTWGpzbzcygZcO/aMNtXP3r0oNvyp2SA5iis+Oxn3CuoKn0ONu55One7rAuo2RdT1+fdRllMuWeg+rSynOHAZdTLiifktKGtN8jVSDSql76qBUeTPt6fekT73b8vW899JYZoaQEAvvQ9Wv52d2qFu8h3W/xI/3357o2jiO+2gjEsuAnWWl0MZ7pxm/zDm6Z/6JDb6xwND57YtampoPczf3rB7Dqy2+2FY++3HzR9K7/p9vxpxbiSJQoWo/r0WThw303Jc7OimNusvrINtBrbXp6/TchDzzop79+wjsOCB0Y0HJjVTGVV9DHBAMK6mI7Pk6vcduuoJdDsrM4xZVt1Ph1/F4zHH7Aj5uPuSa+5QVphf/Fs/BmK1sWfzw3xKyWoipxbY8Z2sgjifAwLrh6GBWMpWT9TAyMn43+Wrf2tvsvGTWSeNl3dU94D43Wf1BUfdza6Nd4rwb1DtMWMPTDqdtAkKgJqpohg9/prbjJPbnwsaRkUEiUn1CYor0aSpIjAMMLX+CxohgYqqxxDgoEipCt1SQKUmYaiAf562jI4uFwtgWbiz9P+NCi+fZU59MCgObR93CsJIPq/1/9O/3v9dxRU0mrLoHWxchIAskqvn8uUBBg1kdkYfyddGj+2JN9RvkkAUYJEyaqx7WtMd7cWE+i7LeB7Z0v7uwKRCGhO5hYZ0+92tjXQfEUkA778hS8lQ4T1HIoPP/7IDL34P5PnvEgG1Is+A2oT1GzbLN/B4SVXpi9gVsShHpLhndFWt4fy6nE3pICnFt8gp+2HynCtM5OsxD3dnQb/i14Zr8CJAi9p0CTUldsaHMzqYgBYSrmun0eT755G8L9ISiTov6vvznCT3T3m4jMMxS8IiYDmZF55d6rDMwLOV2QyoJl2PEVTRcB3n7qjqcoAtU0iGVAvkyfeNKt+9LgZHnvZvYJFlGnFMRUBqIfZWZXGs0qmCnRDyoon+GvtDXIZqlVUAZAkAHYMea/895UGTfqTVZkhXmtocDAAYHHluH6e/CQBkGflvw99d+r/j6rpQpyTwzVyYUgE1FgRyQC1B1Jv/pCGCKsi4J5n7286GaABwhokXJS+668yG756tRka+EbyOLzjVjMxtCnT48B93/nkf6f/hv5bPZd9zv2XUZShsd8mCQHN9EAFRPa42wKqK1352fq2IGgXBn4iHxu15mI8bTsUctuE6aRljyoAWp0AOJ9WZXZ3K2ASWgUiVQEAsJiB3VrcFvL180z83aa2dP0tTwCcT9V0p5PvtmIrD5oXXyPPaV4PmsSw4CZYazMPdtFKYwUZQ9Roh9PMAGGZPPVS0qe/mdY8RVKSYnjdzqYrFrY88rwZnTzh9rLRe9p33X8x666/KtluZdBeCR21tTk+/V6y3dhHc+yhB9xWJv1RFNVjuNfAiHVb4fMZ1BUChgUvjGHBi6vWkDnd6EzG742SeFNm2bLpC978aEXQsjO6ieuN/86r42e9B2Ub9HZhWv3V7I1ffQYQKvg7mSR/5+LnxY4btQE4c0bHSTWPm1YM0wt7iOKkOd29se0JgPPpfHTRrD5vIVVNjqYrO5FgWHD1VGZY8EObTTRX7DnWRivjf4Yb5Nb70w5dy0YveD0Q9jlhypi5+Ps8gMHvAyOqCAzpWFJFnloYoQkkAppQlUSAKFh94L6bmm6H89ZH75gHfvOTplbjF03JAA04bsZSfz8lUbRSf9116ar/ZpMqzVKVh1a1KzmgZ7W+gR9VYvTFf8+MSASEiERANZAIuLDQf8dspuPfYdzY2YNN3/CkQd4N8X9PK6PL1MZsIc0H8aqdCFDgNz5u7MGmP0dnjxv1CS57UqDYG+SkGsCG2hYorEB3iMmAIhKKVUEioHqqkghohdCvD/Ne2xdF3/uzs0pyh0ir8fs7nuCeL7RkgNryFT0noWZoDdQm0+/92W2FqdEmSM/NuHL55cncgPXXNhd4L5KqFJ750wtuL59dA19P2vOcH+BXix69fvKndyfPaiXU6SSANBIT+rlV7aHV7Qpsq7VQs8keLKjsAadq0spQoMrK3Qd6Ov4FtiRBy6KGeirg9asd++P/5pokoKLVwuW1OblRxfnS40a94BUELiJodva4WVWB46an2JYwNtRzTHir3RW06e4Oa2bA3JmQ214AQGekswFCFF4SQNLv23Ba4FkTTl/ykiIR0CZlaNWiVeRKBoy/8rp7JZ+kJc+3diYr8bUdAiUDdr242+3loyB/I+CvgLpmCCjIHkrwfyla3a7EgH7uDw78OPk9lCxAIRhaA6C90iBxGVd7xzc3LgFQdAuT+RQgVl/VMgd25+a0Qh2pmWSFZeO4adVN8rnHTTg3vT7SipjmbRpRH94Qk1HhtrxRUiky4fxsrZobAQBllV4/h5gkDTMJ0BBWonsDi2WaQyIA51AyYOOep7174i9E7XhUHfDlL3zJvdJZz7z2QtPJAAX8FfhXQL3MK+sbv4cGFispoGeSAlhSOlQJQAjCXc20mNF0JXcLEwDnOxvYHYz3wry5uhBrNyftRjCZDGRtZ5uF9LhZ07Y+xsUq5rixJsRE1FSwSYCGtF1BKC0LCq4QAYCSC7NSaiboJIAo0W0DuiZSS0fkRiIAC9KAXD2apSTAkxsfM7ffcJt7pbOUDLj/Nz8JZqBxCBpthBpJAVUKqOUR8Ck2IiAFhCAN8pXpAji+sUmqALZ07CZHrV/MXNlWea8wF83V+0YnrQLo71if8yT5MLcm3ipXEmlZk4GOMCuOGq13wtfdrcRjGIqqEAGAKgixUsrazg+9zyK5llaLxgDw3dYUEgG4IFUFqFWQqgSatf1r95m9334wiFZBk6deMvc8ez/JgAU0KgXU8ujkz+42225eW4q2R2iTM8vK2SYBqJo0OFyWxFx8YzPX39YqgAvRHAKtuCpVMsDWtT3QTDoMroPDFhvS40YDeMtz3DR7gxzkislosGMJIV/pz9n5c16KVZMAICG2vIui/UkVYmlEoVQF9NIeKD8SAVjU5Ik3CxkiLH0rv2l+/YNfmK9csdq90jl/fP8NkgFL6Lnsc2bf5n6qBHBWGVYqALVQmuCwSwIUMAi4KDqPpcmAUIJ0S6njjU563KQtVsJw9rgpSzKgueMmvBWTk0EkE310d4cSLFlBeyAAiFlzq9sKxYz5uKtcLQjT7+IwYgK0B8qNRACWpCRAEUOERRUBmhugCoFOUzLgu0/dkTxjcY0qgYmhdDgyAKBD0uBeGeZ1hJcEaFBQN+0zXo6gbr2GBod93JQpGZD3BjmdBxRW8imkvsRZpVUBYRwrXV2hBb8AoBPCChxH9uFSLrSLojAS87QHyo1EQJtodXWZNYYID45OuFeao5kBmh3Q6UHCqghQZQDJgGz6rrsqqQ5Q2yASAuco3xd4HXQF198YaF5ZVr9EZkuQwdz5yhLUtbY+K55CP250w572qQ//ez+K1rktP1F3eNUApWqbMI+1B91WZ1nL9RCAekvbAoXUVnPGfLxMPffLZ27uabfVab1ubho8kQhok57LPu+2ym3/c0cLmxvQGCR879rO3m80kgGaHdBOSj68+vbxTx6//P0/mUePPpE89LPM/3dvffSO+1+FQYktEgLnKMfqQADlF0Xhr+xUv9OQ2rpcSLIKa06VAaEHdXtq0R7I2sFSHDda6a3BfuHLl0AKLvEUhRFMzyOyoSQw6KUMoN5CawukVfVlrAaQNDkfxs9+8SyJ7hxIBMCb5gas+vHjhcwNkHvX3pkkBK685HL3SvspGXD/b35invnTC+6V4iiIr//uyL89kiQc1j1xq1n7v/6b+eHhe8zd8X7joX//6NGDyUM/y/x/pxZG+t/oof+G/r0SBvrvdrKaocoJAVU/AEBQ0lUvoV/wTplDDwy67fBp9XkZ2o5Uvw/qeHxjWZ6VcboJVsIrdL694dNgcUgB45nSzQaYL61uCSNYMjtHsARAnYV1HWVny5vkTgWyEDJn9WPNkQhALqoIWLPz50mFQBHS6oBHk5ZBnbTryO4kyN7sCnwF5xXY/+4/3pEE8fXf1Yr/3719vOkBxfpvqGJACQP9d5VQaCQWdr24O0kOtLuCoJEQOLb77xkqXH3lWblgo85PJgeKVIpVL8kK+3JJA9Bhtx7J2+alHNR7v3zHTTrgT33gw+XbIi+8YHH4FSJLCyNYEhmuiQDUUzr7JqQWMtPBt89cSmSPuK3OovVdLiQC0BTNDNDsgCJaBWmQsIYIP37L3o5WByjI/sN/vjcJ5PsE1BXgVxBewX8F5RX4f+vD9gXklXx45rUXkuSAkg/6OdqdGOjt+WIyVPjwjltLPxcDF1SmixZ6BqJigg8Gj5b2xqY7+EB0hSsCosFSlscnP3MUdjWJ9T1n2MDOMVEYgYbmhJEsIlgCoK5sFNb5L4rKn+SeC2ZxoJI88EQioDmZb3ZXVjgoOv7K60mroMk/vOleac6NV6zueHWAgvoK5CugrqC+2vA0+vU3NHr86/9OVQRq+aMgfDuD/4vRzzE/MdD4PdrRSmjDV682x3bfaYYGvuFeATqCfrioltADOd3d4bfYuRD1fVciI2S+bV7KYbLcrV+Snz3kahLfYyawY2y23CsmJbKn3FanESwBUE+hVVVaczaoVF7hfD9X8/q4pUgENOfP7nlJPV+s9upoVQT0Dx0yw2Mvu1eaM786QG2DOkmBc7XhafTrb/TqV2Bd+6ocaPeg4Twav4d+blUL6OduZVJgxWc/Y3YNfD1pF6RKgTLx/XmjKAq7pUSxyrRqk0QAqibkQM6oC6aXV/iJjOoF8sown2EpkXnYbYUpbYmwtPDmAzR67KMoBEsA1FNY1092rtzXy+Eh0e0pcs/IwVo7FD/tSvcWp9XyCpTXgYKoRbeG0Up2BbFRPCVa1l9zk1l/7U1JAqZVlCQaGvut2wub5hyoxVFWUcxtVt+mPUPGRpnOe2GYW1OaQELp3ts2Gdue7/OlgEcUTbi98FjbnwwczSr036e7e1XpEwEyMHIg/ufmdCc4o/HnIXsLo4ERHS8hB/4m49+n322X28DIyfifgSafoy2Zqi42jWww1hx2eyGYjs+T5Zsdcb4ouiv+ZxjnFGsHSzWUu0jhnw/9rwvqLuTr5sgOm0M7FCvqjNCvGfNe2+exYd8Kc9HsB24vDPqsl19vfIztc9ud5nd9DCoCmpT5hrfnss+7reqbmn7XrNn5hBmdPOFead69a+80T258rOPVAVWkqgBVByStjV7cfU77oyI1qgOYHYC2irqoCkBVhLzaZbISSYDEXMiru6u14in0lfQ+rA33d4nmMn4P2tCOr54kkFX2R0iJxa6ulW4LAOph2Znwrp0W+q4o3yOUJIBwv++JREBzPBIB9Qp+qlXQlkeeL2yQsCgJoGSAWga1cuV6nWmmgNodqXWQhgwXTdUimh2gGQIh67vuKreVSb3K1ueC7oW8gOACG0A+QQdwouqU7KUVRKGe16t0Pps2h7aXf1hew7Jl4f4uWQcG22i120JVWa6JANRMV+CVQCgCf2NPJALQUkUPEhYNEX7ye4+avpXfdK+gaBo0rCHDqhJQWyYNTy6KZgeoddS+zdXoBhArU8/85kW2XL9v1gAIELqQAzinu6oT0BVrw01sZO33HrooqtYxk1bEhJpAWuGel8KKuurjbwygXmxEJVQdqAUUMiMR0ATfAaHqO15HjUHCg6MThVUHXLn8crP32w8mjysvudy9iqIpAaDZDN996o7CEwLbbl5rJoY2JYmB0KzuucxtZVKRdhgZlW9wH6vfUBWhHsuTZnywWgnRyIZb+WSjatzo2NnqDX4KN4GU9dzB92X1kQgAUDec9+ogxBZQASMRgLbZ/9zRZHZAkdUBqgp4cuOjSZUAWqdVCQG14NFQ3tBaZ3kmJ0655zopU/JjRWVW0KLuwgwAR/aI26qONOEZ5nmuGiXu0yVMKi8t5ATSUivlfrCPQEldsGoSQL1wHwich0RA8zLfyHj2Ha+k6ff+Unh1gOYFaG6A5gd85Qram7bS/IRAUTMEGnMD9ByK3pVeP0u9WgOlylUFYSP6BqLcQg7SlW5uSGZV/b1CUM33NuTkxlIr5c6cIRFQF6yaBFAvJD/rgFkQXkgENC9zEPDzAbZA6ZRWVAdomPBjt+w1w+t2Mky4xZQQ0AyBHx6+x7z69nH3an5aga/KgFCSAZ4VAdVb1biUsq0AjqJb3VbYupaNGmv7O/gYdD8JQhNykO7MsmqeA61t/sutFSrR6zaqXhXJWSSQAAAIAdVuwIIi94ycrLX74qdt6d7iFPTWanicS73idw18o9Be8enK9SfML3//T+4VtJJaM9279s6mEzDJPInhQ2Zq+l33SvtploeSEh5WRVFUrzkBm0Y2GGsOu71yON19aeX6mBft+3v6TBRNuL1wjG3Pd60S6u/ToOTLr3ZkCxqG+7tMx3+fVW67WsJ9zyfj9zzbtP2BEf38Aa6QmltTydZAsumhffFnO9N9QVtFZqM5tP3CA5o37RkyNtrl9lBlSvr/asd+t1cfwZ4P5/G5LkDY563IDptDO4bcXvuFfg2c99reV+jvA4oTRfvNoQdY1JYRFQHNy9wf3LPdSG20ojqg0S5Iw4SpDmg9JVzULmjy1EvulXxCqAzwnVdQuySAdHWXL4Bz0dwGtwWUT9QV6oqm6p7/li2r37m9XaqaBEjM/dltBMbSDgapLtpkAAAqxnKd44NEQPMy38woyFnkqvcqacwO2PLI84XNDhANE1a7IJIBracqjPt/8xMz8m+PNDVMWJ+RA/fd1LHPSs9ln3dbmVQ4mLGIpwYVICvZ6npbjvZAwEKiORIB7Zae51C8in9vRvW8LgAAAEApkAhonteNYkgDUUM0OnnCrPrx42b8ldfdK81rzA4gGdAeqg6459n7zR/ff8O94k+fk8M7OhO3XXf9f3FbmdQ5UFS20uUNZsM+VsEBRYps5qpIwKl2i7Y5Sws6AADCwCpxYAEkAprk2oJkvujvXXmZ28KFqCJg456nk17xqhQogpIBGiKM9lASQMmAZ/70gnvFX991V5mhgW+4vfbxrAgIc5hkO9iSDQyWZWc2uy0AyCLEhGfYPa5RTjZa7bYAAKgGWqEBCyIRUIzMZcCrqQjIbPLEm8nsgOGxl90rzVGboPXX3uT20GpqD7TryO6kVVBeuwa+ngzvbRe1I/KcEVDfFgCRLd8wsyja6rYAAMBZBEvqgqQPAAC1RiKgGJmDgb09VAT4UHXA0NhvzZqdPy9kmLAGCNMiqL3UKmjXi7vdnr8D933HbbVejtZd9U0EpMMey9YCocd8fw+raQEAQF2R9AEAoMZIBBQjc3sQBRoZGOxvavrdZJjw4OhEU8OElQSgKqD9nnntBfPDw/fkGiKsFfrtahGkdkQeZlxrsDorY1XALrcFAEsJMWBGD3oAAAAAuZAIKIbXqmAGBue3/7mjyTBhDRXO6/Ybvue20E6NuQF5kgFbb17blgSa56Dg+lYDfCJ62m2USR9VAQAyCnHIHN89AAAAAHIhEVCAKIq8bso8Vx3jPKoI2PLI88kwYVUK+Lpy+eXJ8GC0n5IBmhvgS0mAbTff6PZap3elV5KufMNyi9bdVb6KAKEqACgGvaaBc0VdPW6rbOpe4QgAAFALJAKKkzkg5rnqGBeQDhP+ea5hwn0r/6vbQrtNnnop1wDhu/qud1utkaNtF6synxpU4KCM7wNVASgZvwUHbVTdXtM/2FfWgG7oqn3ujebKedxE9pTbAgCgGmwXSW5gASQCipN5dTAVAcXSMGHfZAAVAZ2lAcJKCPjQrIANX73a7RWv7zrvBF05V8MXzdqDbqtcouiA2wLCN2dD7QsfYuucYpw5QyKgVTbsq24CyUYr3VZggk0mAgDQGnaORACwABIBxfEKCvZdTzKgSEoG+AwR1tBgdJZaBPnOC7i1hYmAdX6fyakoihjYKMuWjbutsukxm/YMuW0A+ayobFC3K9CV657tKIO07Ex1E0j6bglRuMlEtB/HAgAANUYioDheN2atDGjW1fgrr7utpd14BW2NO01JAN8WQa1MoHlWG1AN0FDe9kBaubmV9h8ohTPLwv2MXTxbzVYvwc4/mPuz2yivUJMsxSjn7zZHcLg2InvcbQEAgBoiEVAQtzo48416jjYkWMKp9/7itlAWz7z2gnnro3fc3tLUHkiPouVIMDAoeL6ytgfSaubZ2cNuGwjX+GDAQbponduomjBXrVchYGsresyEPHvmVzuWWsBQ/koTAADmW/q7D6glEgHFeto9L0mDSVsR0KwznyHMPsFntNbktN+sAH12ipajQoeLivnOLBt1W2XUS4sglESYfU6trd7q7oHdSgKEWi1UhYBtXyVbSlW70gEAAAAVQCKgWMwJ6KDeldkDxG9/+B9uC532zJ9ecFvZtCIR4NkWiPkA50tXK5c3GWCjXWbTyAa3B4Qq1IFnvZVrsWWjcAO6y5ZVY/DdRXPVO+fa6Fa3FZqlk0esmgQAVBMDg4HzRO4ZBbHWfhA/ZVrlpJ72G/dkLiLAIhQcPrb7793e0hR81rBahOHoP/yr21ra6OQJs+WR591e81SZc/Jnd7u9TIajKGIF+fnUEiGKJtxeGc0YM9dvxnbWtz1CqH/Dse35rlVCPyat7fcKvm16aF/8v9nm9sJi7WD8u+x3e+U3MHIs/meYrYF8Pg8DIzr+Q01qjMe/y0a3XX5Khs3OnnR7oZmM3+t+t31hAyPWbYViJj63VOcYCYWSiel8p3oJ+3yY8r0uqDtV9GoxT4giO2wO7ejc/WLo18B5r+3zCPGzH5mNDPEvWBS/n3W+j/dEIqBg1lr1m868yunSLT81M3/9m9tDXttuXmv2bV76Hqdh14u7k/70CMPjt+zNPMB58g9vmv6hQ26veb7HTmxNFEV8ySxkYERBkDKvDJ42p7vXhN2PvYVIBLSX7w3/9/dsi3+ffW4vNFPx32mN2y63pC1QlxIBIcoW0G0IPfDV3b2qMgHJkD+fWQNSIR4v7QwWodpIBFQPiYALIxFwVogLafiso8NoDVQ8ryX+ni1JcAGrPdvFvPr2cbeFurur73q3lckMSYDFRMNuo6x6zEWzE5XsXY0qCPnc05vcdFZC11a3EaJqreKdO7PZbZVfFIV73NiurMdNeMdXZc4rAICOmJs75bZCEmbVKWqDREDxxt1zJjmGlGIBPV/MPnj5w48/Mm99yLBgpG2BPGcOeH2+a2fsAc0JKPtq+l6SAQhS6CuHougut1Ve6ec+3N711lZrFYONtlbiXJsGqwOuhpvNlkSMLMESAEDVhLeQJorWuS2gI0gEFMwNEc18slFFwIrPfsbtIa++67IPXn7t/TfcFuouR0UOQz2WEtmH3VaZkQxAqEJOBmwu/dDgi8+odDzcz31kq1ZGvsK95+UWBdqaoiFrz9y5AM8vVUgwAgA6J8yFNFS7oaNIBLTGQfecCe2BmqNV3T5+R1sgOFtvudFtZaK2QFQELOXjZRoYWoUe+0oGHEv7hQOBCL012ezsAbdVPkpiaIV6uKo5BE3veZkTSGk1QMg39NkDIGEGS3pLn2AEAHRaaNdPK8ymkXArUFF5JAJawytY6NmjHOfp+eLn3VY2f3z/dbeFUCy/eLnbah+1BPJMIpEEyEKDdqtRFSA98dfkBBdqCIc94jZC1Vfant6zsxr0GnIVUNWqARpWuPe+nKIo7OSXf/IwvGRTlWZJAAA6IbzvNmtCXnyCiiMR0AJRFGnYVuaTjdra+K5qx1m+791HH3/kthCKL3/hS25raVPT77mt5my9ea3byoy2QFlVpypAVsQXaofNpofKG6hCdRzaHn5CUoHRsrXVSpMXYSf8bPBJoGZsKGXCddOeofifga9W9zxuoii8hFNVZkkAADokCvEaqryLZ1B6JAJax2tFrGeLEszTc5lfRQCtgcLikwSQP//1b24rP83l8GzJRVsgH6oKsHbY7VWDtdvMwAitghCC0M9FPeaiEq3wVoAxig67vXAtW1bt7yBrDpSqBYy+C2zgswHk427PwH6QCadqzJIAAHTG6a4wr6FCnzGEyiIR0DpeJ5vN62gPhHq68Qq/uOrkH950W/nlGNJNEsDXr3aoKkDVUVUSH6xdx9wqUKAzyrEyfLMZeKgc7TwumlUSIPTVxlPmqcGqnU/PpxZBh0ux8jv5GbvCTx6pnZQS8z68EwdtoqQLswIAAHmk34XhtQdSVQAtaNEBJAJaJIoinWwyBw8VlNzMrADU0FeuWO22spl+989uK78cbYGq0vO+vazd4raqRQGJgZGTpQl0olpKszLcHgi+gmZgRP3dwy/Ltvag26o6DWkPP8B+0exE/M/wg9LW+rc0TIMlYZ5jlCiqAp13dA1BSwgAaJ8QW9+JKiKr0P5O98UDIx9wf1wOJAJay+vGjaHBqJtLLl5u+lZ+0+0tbfq9vySPZmhIsB4epiP/YXuQX+3QBVeYF13N60kDnSMT3MyjrdKV4SVJBnRNBJsMSJMA5bhZqXpboHP1ub9NmNKfrRwt4iKb8/s3CnUmUm/p5/WkARI9ekwUTSS/D/MPAKD17GyoiypWlGIRxGKSa32r7+f4+8zdH1PFFzQSAS3keopnLuXW0GDPACVQan092ZMAMnmi+bZAVAO0WXe3qgKqMjh4IX3JzXzZKwQUiOjqutXtIXjBBurOpxYq4SUDypQEqEdboPNpVdlEUAFS/SzlOm6mzdjOfIsYQu2lLMm8npJ+1yY/tz03yaXf56LZk7SGAIAWS78TQ72eCnsRxGKSa/z4Wj+55v9En5nVdxvtdEMVuWe0iLVWB3/mISCjkyfMlkeed3vIYmjgG2bXwNfd3tLW/q//5rbQaY/fstfc6NEaSJ8NfUby6rnsc+bkz+52e5ld6lp9IS9dBJRhqGIxZkwUjSarTvIGYdpJwQdrlAAIN7Aytj3ftYoqNZSkCZW1/a5qxp+CkgoenXvRHbhoixl7YNTtdEb6vmnFUokCiU28bwqm62asvKZMd/fGjidC0uNG72U5KgEkivabQw8Muj1/AyNanRhwcDqA84mP9PtI7+li5+zJZPFE/RJ/7VH+82E9+FwbhXx/Edlhc2hH54KgoV8D5722b1b496Sj8XtTnta6CycBzjcVf64Hc9/zoCWoCGg9r4tUzQlQsBLZzfz1/3Nb2Xz5C19yW+ikKy+53CsJIOOvvO628tncd4PbymyUJEAB0gvhurRXWpGs8NNQYVUJqOw/pNZByarWh7TaVmWbHxhrFJgo5+rKOgu5j/cF2QMdbYOhm5U0mFum430m6NXZrddrZmePdXS1tM7fadKtPEkA6epqspox9KojtR4oSWWAfs40ILfUuU8rKI/Fx1x8DQEAKFzXstATyOk9WhlkSwJIb/IdSCu8oJAIaLEoirSqw+uEs/WWG90Wspg69Z7byubGK8p1L1dV9669021lMzX9rpn569/cnj8N5M7RFqguAxrbYK6ag4MX15MkBdLWQR/Ej/giaM9QElhq14WQ/n8pqJAG/k+ai2Y/SAIoaTCUi7Ey6+4edlvlkbbBUKCrvcmxpDS561i8Va4LAFUXpUmfOluRJCy1Qr2d/WZ1jtZNa7YAbmiabyeVrrYP/NhzycWQJeee89oBLW5FfMzti4/3Y8G1VAOAsku/G0Nfma5kwOGgg+ZJIj5TEuAsWuEFhdZAbWCt1Q2vPiiZKNi56sePNxX0rBPfdi9/fP8N88PD97g9dIKGBB+502+xWbNtgXxbSMWmoiha47ZRBAWkdYOLBl2MTsfvyZQxc3+Ov5KnzJxNAy9nlk0tGQCcH0yNunpMNNcTX5R9Pv7SUfBAAbNqDGmiNdCFBd++Y1GT8Xsw3NJS4bQnt0rAy/lZ6O5e1VRAt5qtMEaTJFir2qfoxvviM9uMjbbGeyVNlhbUNif8FgoN4bXU0XGUDn9s7vOnFk8fdw2TECwArYHKgdZAxQj9GrhTrYEkbYuq83Po4u+0uY1BtZpNrpHmdsWf02Yr18bj7+3BoL63a4aKgDaIokhfZpk/wFq5vO1mqgKymn7vL15JE7UG+opnSxoU6/YbbnNb2TXTFihnNQBDgov2qx3743+GvgqjnRSc7EsupnQjo4tSXbTroZX7AyN20Ufj/za50LcH0v9GcmGmG91qJAGwOGvLfJ5Kb1IVnFHAvqiVT1o1ruCAKmDSlbhl/SyMcoO0oM3JADpVORW5qkyrr/Xf1Gq1NLBU0iRAge2kwm+h0BBWSx39HGk7qeaDzp2qogKAqjq0Xd+RZbi+iq9fu44l17QhVAfoe0jfR80nAWQDrfA6i0RA+3jdrCtoqeAlspn8w5tuK5sHvvYjt4V202yA22/4ntvLRpUAzVTIKLHm+XmajtSSAcU73b0x/icr24AipKvmyp5c60sC9mny63ByU+AT9NLNkQLCahGidhoKEqeB3HInw8rY+qm9NruWQTpu0n7xPq1UkoTRJ8fNyeRmuwot04psJ5UmospyLXS2pU6ngub6/6v//2nlY5HHUY9LmobdKgIASiMqzzWWrmkVgE+qXDtA10tatJMsPCv02ppWeB1Ea6A2stZqdUjmD8/w2MtmaOy3bg+L0ZDlA/d9x+1l88yfXjC7jux2e2iX4XU7zfprbnJ72fQPHzKTJ/ySPQ1KAJz86d2+iYDhKIo6V85ZdelwIQVdgKXRGmhxof+ezVEgcrFVW1VdJTsaH/fNz1WpbysMVeFeKBiuQGp1bzibbSd1PgUAlFwrn/jcGh0spEXSUtIWZGol1Y7jaib+7lBLNVVYwgetgcqB1kDFCP3asJOtgRqSRQClWzQyHX9GHjZnlrV+hlR6DOm7rT0tSPWZ+XjZflrhtQcVAe3llXlUVYD632Npahvju2JcwWgFpdE+asvkmwRQtUfeJIDkqAbQlw83WK2U9DqM6jg8GCheesNcTCuQ8OgGTYGbCz2qaIZqgKYpILvQ8aJHlVedFd9OqlxVAfPFf2urIfkfpFUfBa82VDVJOoS/MYC/XcdVYwXlRFuHZwNA5ZSoKuAsVYjtS9rPFd0iUfRd2aiUTBNJ7ZtD1qh8UAICLUcioL10o545w6Xg5a6Bb7g9LEZJgDw95BWU3vvtB5PhtWi97TlaMh1sYkCwPkN5ZgNEUUQmutXSVXq0XwKKoIFbqIbIPsxsAOTSqgRSuRNTK0zSz7jrWBK0V3sdrSJWoCFrmx393yZtpJLZI2rRY92gyU62ktJchJPJzwQA8Jfei5b1ekvfPY0WiZodN/HJd1vWJLGC/sn3W/LdlrZa1HdlOgOgU4lmWuG1Ca2B2sxaqws2rxK2VT96PBmIi8WpeuLkz+52e37e+ugdM3Rkt/nd28fdKyja+mtvMsPf8qvA0HGv4z8vtYtS2ygPSgCsIhHQRpRqYym0BspGF/Khlsgjq2lzuntNYWXRnF/rpJh2UhdS7fOLAkHnB4MUBCnLinu1ithS6PdJFXE+LAdaAxUj9GvgEFoDiZK8aWK3inQtqVaJ85WpPWL880eDbWnxV0NUBLSfWo543eAd+JFf7/u6UtBYQ2XzuHL55eaxW/Ym1QEaZotiqeJi+9fuc3vZDTcxI0OJIc8kgFAN0G7p8ODzL1IA+EpvOFlJXmYK5tEbFf5a305KfXure35RwF8B4vmPsiQBJF1BqXYOrKAEgOwObVfHjqomUfV9cP53W5naI8Y/f9Lij1Z4LUAioM1ckPHhdC+bvuuuMn3XX+X2sJjBgxPeswLm61v5TfPr//GLZHYACYHi6P30bb+k2QB5EzuSI4GmzyazAdpNQa/T3f3xFskAoFkKJKOcomg/K3qRSzvaSem7OjK0IAuZ2jmob3TRPaMBoMq6u3XtzCKMcNEKrwVIBHRAFEXeq/bU4gRLUxJgyyPPu738NDtACYHHb9mbtLRBfnr/lGDxNTz2stvyt+GrVycJNE9UA3RKsgJ2joswoFkKJCugjLKZNh93MSAYecTHTrJav/XSlZNVHUxeFStcz2hWUAJAFkqkK6GOsKkN2MAIw4QLQiKgc7xu+NTmZIjBwZloaPD+5466vebceMXqpK/9kTufpkogB71feVoC6W84eeJNt+dHA4L3bdYCcy9KzBE866SxnVPGzOkPRzIAaMahB7RqlwqbMqElEPLSKv12HjunWTlZElpBqYCJhj4CABaTttekKjN8vbTCKwaJgA6Josh7SvnWm9cmCQEsbXB0oqm2MudTWxtVCTy58VFz79q73KtYykN/96B3SyBVdejvl9e2m2/M8zkZphogACQDgIJQYVMaGihISyDkM+5W6bdP2iKIFmTlsCK+4dxKsAQAMqBFUHmoFd5/SmYgICcSAZ3ldSGtlc4MDs5O8wLUZ75ICmrfu/bOpGWQb4C7bpQw+fIXvuT2snv4uaPJ4Oc8enu+aHYNfN3tZTblEnMIwdlkQFWHEgKtp88RwboyGHer0ABfmq/Tmc+4kg+0ICsHqo0AIJukRRDXzqVg7WDLZyNVHImADoqiSCvAvFaBqe+5+p9jaVpZ3j90qNDKgAa1DHqMZMAFaSaAEia+pqbfNUNjv3V7/g7cl2ueA8PvQqMg5unuNfEW7U2AvJJgnaXvfLh0nuOGE/koWNHJAG/agoxKlpBRbQQAfkh0l8F4/N3G36hJJAI6z/smUIODVR2AbDQ8uJnBsxei1e5KBuBcmgugeQp5bHnkBbflTzM0VBHgadwl5BAaBThOd6sygGQAkFe62pyKp/DMmO7ujazURS4KUrS7JdBCTsfHMN/RoaLaCADySBPdDMYPE4toCkIioMOiKFJJi9eKvaRF0H20CPKhVeb9w4dyt5y5ECUDmBlwliok8swFECVrVBGQR86WQArAUA0QMgXJxrarMoBAJpDX2HZdMBOsC0f83TPXT0kzcppyQYrOSxJZzCMJEIESAGhGeg7l2jks6TUHi2gKQSIgDCpt8bohVHugzX3Xuz1kMXniTbNm5xNm/3NH3SvFUAscrYKHMdu/fl+uuQAdagn0sEvEIXQKZKoXIIB8qK4JRZoESGahAN7SSpKQMOQ/NGk1JYESAMhP51CunQPD9XORSAQEIIoiXax5B7n23dVvei77nNtDFpobMDg6Ydbs/Hmhg4Tz9MOvGlVGrL/GPyCvv0kHWgJNx587SqbLRL0ArSXYAOTBDU0ISAJQ3dWkQCtJSAaEIj3HkAQAgObpXJom3zmndly0hSRAsUgEBCKKIvUh8+pFphZBh3fc6vbgQyvQNUhY7YKKSAgoAF7nwcHrr70pdzJk8OBE7pZAfddflaclkFAyXUYaetfNEGEgF5IBnUQSQKw9GP+TZEAugd8EkwzoNM4xAFC0JPnOd1tn6frnAa4dC0YiICyqCvA6yWgltFZEIx+1C2okBEYnT7hX81EwvI7UCmj4W/mGA+s9z/u+J4mw7bkSYfsjBgSXly7INDcgsl6zVQDEziYDOAe2DwG6+U5361qX98JLSW6CSQZ0CucYAGgVnVtPd6+KtzjHth1JgFYhERAQ16/cO7ilFdFaGY38lBDY8sjz5tItP01aB+VZof6VK1a7rfpQEuCxW/a6PT96j1UNkJeqYZQM8JTrM4YAHdox5FoFMecB8KFkwNh2fXa4sG69NDBKgO6spG0JA2azK9lNMMmAdiMJAACtRlVtB5AEaCUSAYGJokiDg71X6mllNPMCmqd+9RomrBkCSgj4uDbHkNwyUyskJQHytERqzAXQcx6qgum7Llfya0v8GePmtCrUKuh095r4xKnzJgAfDOFuNZ2fCNAt5GywGIsq6U2w/r6snmyHqaRdIucYAGi9s8kAgtOtpQR3/N1GEqCVSASEyXsoCfMCiqeEgM/8gCuXX+62qq+ZJICo+qIDcwFoCVRFuig79MCgqw7gZrh6uAhsJYZwt4aSk6q6SFa/Y0FJ8DJiXs8FlXwlHAGTVhtP3t8Qh0cDQFXpu42FNK2ULhQhwd1yJAIC5FYse98caV7Agfu+4/ZQhCMn/t1toaGRBFBboDyGx14246+87vb8qOol51wAWgJVnaoDzs4OIPhWfqOmu3tVcrGN1jo7hJtEafNmTGQ2JslJLC0JdJMMOM9Mkpyrwkq4RsAk/RvzvVwUXeeMbd9IohEAOoSFNK2QJrhJArQFiYBARVE0Hj953wRs7rvebLt5rdtDsz7v34O+0ppNAmgw8NDYb92en0bVS465ALKRlkA1odkBaUsCViGW09kEACsd2ycdwt3PEO6mqBXQKnNou67fkFUS8J5TIorv6MZKOCXnqiT9G1O117w0SaTrHABAZ6UtanXPyXVfc/TdNkiCu71IBIRNK8q8AyH7NvebDV+92u0hLwWcN6+73u2h2SRAs8OBVe2iqpccBqMo4uazThqrEBVQZpVzGcwkAWgSAJ2XBJiSoCznzOwaNzC0AsorWf1V+0DxaKVXwun3Olu1B39aKbmqckkiACiz9J5zY1INyoKGPNLrP1VYoK1IBATMrWDWScVbE0FTONtuvtFr9fmrbx93W9W0/ev35U4CaChw//Ch3MOBdTznTG6Nx58jvljqqrHKOS3d5OY5PPHfRH2wt1+aBKBJAIShEbBL+59yU7M4BW8VnON7plk67tKe8nVbWRd/xpLz4JZaJJJ0ridJ72M6CTCxUhIAwqVqUCrSfaSLwHS/UdUFEIEjERA4t5LZu3+qAtgTuzblbaNSe3rftnq2WPrj+/n63pfB8LqdZv01N7k9P80mAdTqSi2vclBQkd7DaMwPaCQEuEDrrPjCL9rvVv9Xow92VSm4zU3NhUwm55O6BG/bpbGyrj495dP5HHU7D37SiixZ7EQC+EIUJDkdHx+0GwOA8KXXMBokzAK0xY0n1z60uesoEgElEEWRbhC8bxJIBuTnWw0gv6toRUAzSQBREkBtgfJQAkCtrnJiLgDOlSYEGi2DdE7l+GifUbeq8dJkkCqr/8uhcVOTfmYIRiVBy2T1dvX6uIdEgfFq991trPLur/W5UAHuse2rqD76lHRWjoIkJBoBoFwaC9DSRQ3c75zVWESzkfvAziMRUB66SPYum1F7IJIBfvJUA7z10Ttm8tRLbq8aNBPgyY2PNZUE2PLI87mTAGoFpJZAOW1x1TTAp6WrEbekgabkIo1jpTXGk/f3dPelyfvNqsbySj8zG2tcVdNIAKyiiqVNGtUB6TFXlXN0WgrPKu9zNaqP0vkBdQ4OMCwfAKpC14u6biQh0EgAsIgmICQCSsKtbM41hETJgMM7bnV7WMq+u/q9EyePHn3CbVVDs4OBRUmA0ckTbs+PjtkmkgCjrooGWFwSaEou0ta4AalUCTRHF7mNlf9R/Iif4/eXFY3VUb+qmsbNCwmATkmPufj8XOob6UYCgFXeF6L3RO/N2aBJXRL0OhZIAABAVTUSAunChjotAhglARAuEgElEkWRLg5zDQ/uu+6qZgKrtdFz2ee8+9GrGuCZ115we+UXQhKgiSqWqfhzohtIwE86IDUdXJv2LSYpkI0CpYNJIiUJlrLyvxaqXVUzfc4cC25ewtC4kU7Pz2X5m0wn50cSAH7qkaCPz5nxuVPHBgkAAKi+dGHDxuT6sroVcPE1dPy7NZLbXEMHK3LPKBFr7eb46UC650fBWQVpsTAlS3wTAbte3F2ZREARSYBmjrEmkwD6Ml3jqmeAYmwa2RB/Va6LT7zxs+lJX6y1yfgC74iZi59Dv7j7wb4eM3dG35dh6lo2Wqngz8DuXhN131XSz4q+N8bjq+KnK5XIGnhos4nmwvlbFHnMJ5/vua0BHm/psWTtQW6AC6TvYmtU3qy/94rktfJRknHcdHU9TOC/A0I7H2JhPt8T39/TZ7pMn9sLS6evk0O/BmZQbErHcBTdFW+V+7stWaAx93CysA6lQCKgpKy1++KnbemeH5IBC1M1wMmf3e32slE1wHefusPtlduVl1xuHvq7B8uaBNCNd3/EXAC0ki6qZ+fiGw67Lt7TjUfVbyj1eZqKv3COm8hOcnGHzJQUsJFubhS4C/MmXcd2FMU3LvYIVSwl1/kkVHoTXLVEUqjKlaBX1dzTZtmycYL/AIALSq5log3x9bOunXvTF4MVX0PH323WjnN/WE4kAkrMWquqgFyZXpIBn1bnagAF/1UJoIqAvDqYBBBVAvAlhPZqJAYiszo+IeuCLdSA51IUnNBKxSljzXFj56ZZyYpCNVbt2UhJNH1WOrHqaTI5xhX47+qeIihXUecmbHWsteJmmiRpKML6HtY5RcGR46WomgMAhGnDvhXm4lldy2hhTSevnUULLvXdllaEn1k2RavD8iMRUGLWWp0MJuJHrpucqel3Tf/wITPz17+5V+pLgehju//e7WVTlWqATicB+q6/yhzefmszSYAtEcOBEYqkFHc2PicnF24r41e0WrGTF28NaUAiCYTO/TnemDJzdoZABTpCn5MzZ3pccqDxOWk8mpHerOhZwTgd50psEaitt2SVXVd8bCWB4vgpuanOwh1HwrFUGvP/3sWeX6RxjokPiSQoku4TGAEAtNL8a2fT9XmX/Nb9Za5Y4ALOvVdU0H/ZsmkWzlQTiYCSIxlQjImhTclAZR/3PHu/+d3b7v6wpNZfe5PZ/rX7OpYEUAVGk0OsSQKgPNJ2KStMV/xoBKTERqvjf+ZNFGgo0ym3Hf+3uqaTYJVw8YayanxWsiKhBSAr3/OLcI4BAISskSjwQRK7tkgEVEARyYCNe5420+/9xb1SL1qRrrY0Pl59+7i5+9n73V45KQkw/K2dbi+fDicB9kdRNOi2AQAAAAAAAFxAl3tGiUVRpCzexviRK5uXtsW5M3muo10DX3db2T169KDbKidVAXQyCaAEQJNJgFGSAAAAAAAAAEA2JAIqIooitX/ojx+5kgHqz65V8b7DcstO1QC+LYFUDVDWlkBqATS8bqe5/Ybb3Cv5DI+9nCsJoOMsz1Dm8ygJsMVtAwAAAAAAAFgCrYEqxqZDQ9QmKG+/6STIOzT2W7dXbRoQ7FsJUdbZAEoCaCiwhgM3QwkAVQP46rnsc+bwjlubrTwhCQAAAAAAAAB4oiKgYqJkynf+ygBRqxyt2tbq7SrTqnTfoPTkqZdKmQRQ8P/J7z3asSRAQe2nSAIAAAAAAAAAOVARUFFFVAZoiPCWR15Inqvo5M/uTlap+/juP95h3vrwHbdXDl+5YrV56NsPJhUBzcibBNh281qzb7NyU00hCQAAAAAAAADkREVARbnKgFXxQ8+5aPW25gZs+OrV7pXqUDWAbxLgmT+9ULokwPprb0raATWTBJj569/Mmp0/904CqKJErYBIAgAAAAAAAACdRUVAxVlrVRGgygBVCOS2/7mjZnBU/5nyU4BabWqqXg2gocDrr7nJ7eWjJED/8CHvqhAlkZQE8H2PF7AliqJRtw0AAAAAAAAgByoCKi6KIs0K0JLs3JUBovYueQbrhmjbzTdWuhpAq/+f3PhY00kABf/X7HzCOwnQOFZIAgAAAAAAAABhoCKgRqy1B+KnzelefqoMUIVAGaka4ORP7/YahPzhxx+Z7z51R/IcOg0D1jyAK5df7l7JR8F/VQKoIiArBf4P/Og7pu+6q9wruSl5tTGKosl0FwAAAAAAAEAzqAioEddnfTjdy0893yeGNhWx4rvtVA3gkwSQX/7+n0uRBGjMA2g2CaBZAL5JgLQK4M6ikgD9JAEAAAAAAACA4lARUEPWWlUFqDqgKQoUD4/9tjTVAVWuBtj+tfvM7Tfc5vby850FUWAVgKh9lZIASgYAAAAAAAAAKAgVATXk+q6viR9NBVwVUFd1QFlmB+y7q79y1QCaB/D4LXsLSQJseeR5ryRAgVUAomOSJAAAAAAAAADQAlQE1Ji1dkX8pMhvb/JCk7SaXBUCPi1l2kUr10/+7G63l81bH71jfvjP9wabCChqHoD+XhtHnjaTJ950ryyu7/qrzL67+opM/gxGUbTfbQMAAAAAAAAoGBUBNabV1/FDlQFajd00rRBX653Nfde7V8Kxa+Abbiu7R48+EWwSQPMAntz4WGFDgbMkAZI2QPd9x0zs2lRUEqAxD4AkAAAAAAAAANBCVAQg4eYG7IsfqhJomgLMgwcnM68ybyUFrdW+yIeqATQbIDRqBbT96/eZ9dfc5F7Jb/IPb5qNe55esoJD7ZQ0ZHnrzWu9WystQsOAN9IKCAAAAAAAAGg9EgH4hLVWLYI0RLiQVkGiYPOWnz1vpt/7i3ul/SaGNnn3sd/14m7zzGsvuL0wXHnJ5eahv3swaQnUrNHJE8lMgKWouiPPbIUlDEdRNOS2AQAAAAAAALQYiQB8irVWlQHb0r1iKPCs+QHtTgion71a2fj44/tvmB8evsfthaFv5TfN8LqdSUVAs5QA0N9jMUoAqJ2S2gEVaDp+bImiSNUAAAAAAAAAANqERAAWZK3ti58Ox49CWgU1tDshkKca4J5n7ze/e/u42+u87V+7z9x+w21uL78sQ4FblACQ8fihJACtgAAAAAAAAIA2IxGAC7LWKgmgVkEbkhcKpITAwSMnWjpDQEFtDbf18erbx83dz97v9jqryFZAmtmgeQALJWDU9mfDV69uVQJAgX8lAJQIAAAAAAAAANABJAKwJGutEgFKCBRaHSCaIXBw8sSSrWryOPmzu70D26FUAxTZCkjv7eDBiU8NBdZ7s7nvhqKHAM9HFQAAAAAAAAAQABIByMRVB+yKH4XODmjQSnUlBPY/9+qnAtZ55KkGmDz1krn/Nz9xe51TVCsgGRydiN/To24vpbkJd627PnmPWoQqAAAAAAAAACAgJALgxc0O0DDh3uSFFtAK9qdfed2Mx488tLr95E/v9l7l/t1/vMO89eE7bq/9imwFdP48AL0Xm9ddb7becmMr2v/Mtz9+DFMFAAAAAAAAAISDRABysdYOxU9b40fh7YIaVCWgZIAqBdTjPquhgW+YXQNfd3vZPPOnF8yuI7vdXvutv/ampBKgiFZAeq/6hw8lyQCt+r/1q1cnMwBabDJ+DEZRNJXuAgAAAAAAAAgFiQDk5toFqTpgc/JCC2VNCuSpBvjw44/MDw/f25FqAAX+t3/9PrP+mpvcK81RG6AjJ978JPjvWxWRw3T8UAXAaLoLAAAAAAAAIDQkAtA0a63aBCkhoLZBLddICqh9UKP1TcO+zf1m281r3V42jx59In4cdHvtoxZAQ9/6vwppBSSqAGhD4L9BrX8ejh/7aQMEAAAAAAAAhI1EAArTjvkB51Pwe/IPbyar4JUgOLzjVvdvslE1wHefuiN5bicNA1YroJLS6n+1ASIBAAAAAAAAAJQAiQAUzlqrVkG74kdP8kLA2l0NoFZAe7/9oLnxitXulVJRAkBtgNQOCAAAAAAAAEBJkAhAy4SeEHjro3eSaoB26Vv5TTO8bmchA4HbjAQAAAAAAAAAUGIkAtBy1toN8dPW+NGWGQJZKRHw2vtvmD/GD7UGeu3915PXf/f28eS5SGoDpHZAJaK2P+PxgwQAAAAAAAAAUHIkAtA2boaAEgJKDAQvTQ684fZSSh689eF/uL2FfeW8tj/LL15e2EDgNlDQX72SGAIMAAAAAAAAVASJALSdtVatgpQQUOugFXoNHTcZPw5GUaQ2QAAAAAAAAAAqhEQAOsrNEbgrfgTVNqgmGu1/Ho6iaCp5BQAAAAAAAEDlkAhAEOZVCahtUJDDhSskWf0fP8Zp/wMAAAAAAABUH4kABMcNF741fuiZ1kHF0Ir/RvCf4b8AAAAAAABAjZAIQNBICjSF4D8AAAAAAAAAEgEoD2ttb/zUmCegbZxLbX7U9udpPRP8BwAAAAAAACAkAlBK1lpVB6hKYF38UGKgrnMFFPg/oucoirQNAAAAAAAAAOcgEYBKcMOGVSWgxICelRyomsaK/+N6JvAPAAAAAAAAIAsSAagsa22jUmB1/FByQI+yzBlQf3+19lHQX9tTtPoBAAAAAAAAkAeJANSKaymkhIASBI0kgV5r7LeTAvxa5a/nP8cPrfCfiaJI+wAAAAAAAABQCBIBwHlcJUHDhaoI1ILofFqxfyrdPIdeb6zmJ9APAAAAAAAAAAAAAAAAAAAAAAAAAAAAAAAAAAAAAAAAAAAAAAAAAAAAAAAAAAAAAAAAAAAAAAAAAAAAAAAAAAAAAAAAAAAAAAAAAAAAAAAAAAAAAAAAAAAAAAAAAAAAAAAAAAAAAAAAAAAAAAAAAAAAAAAAAAAAAAAAAAAAAAAAAAAAAAAAAAAAAAAAAAAAAAAAAAAAAAAAAAAAAAAAAAAAAAAAAAAAAAAAAAAAAAAAAAAAAAAAAAAAAAAAAAAAAAAAAAAAAAAAAAAAAAAAAAAAAAAAAAAAAAAAAAAAAAAAAAAAAAAAAAAAAAAAAAAAAAAAAAAAAAAAAAAAAAAAAAAAAAAAAAAAAAAAAAAAAAAAAAAAAAAAAAAAAAAAAAAAAAAAAAAAAAAAAAAAAAAAAAAAAAAAAAAAAAAAAAAAAAAAAAAAAAAAAAAAAAAAAAAAAAAAAAAAAAAAAAAAAAAAAAAAAAAAAAAAAAAAAAAAAAAAAAAAAAAAAAAAAAAAAAAAAAAAAAAAAAAAAAAAAAAAAAAAAAAAAAAAAAAAAAAAAAAAAAAAAAAAAAAAAAAAAAAAAAAAAAAAAAAAAAAAAAAAAAAAAAAAAAAAAAAAAAAAAAAAAAAAAAAAAAAAAAAAAAAAAAAAAAAAAAAAAAAAAAAAAAAAAAAAAAAAAAAAAAAAAAAAAAAAAAAAAAAAAAAAAAAAAAAAAAAAAAAAAAAAAAAAAAAAtIwx/z/Oz5WuMf9r7AAAAABJRU5ErkJggg==;" vertex="1" parent="1">
          <mxGeometry y="10" width="124.03" height="30" as="geometry" />
        </mxCell>
        <mxCell id="DvpCGi1ZZNjJYeLoS05y-4" value="Untitled Layer" parent="0" />
        <UserObject label="Link to Excel Catalog" link="https://globelife-my.sharepoint.com/personal/dcbrown_globe_life/_layouts/15/Doc.aspx?sourcedoc=%7BC065CD6A-9BB7-444D-986D-9627ADE83CA8%7D&amp;file=A1.1_ApplicationCatalog.xlsx&amp;action=default&amp;mobileredirect=true" id="TyadW_WsYroZ4wFCRJfV-1">
          <mxCell style="rounded=0;whiteSpace=wrap;html=1;fillColor=#f5f5f5;strokeColor=#666666;fontColor=#333333;" vertex="1" parent="DvpCGi1ZZNjJYeLoS05y-4">
            <mxGeometry x="40" y="160" width="160" height="60" as="geometry" />
          </mxCell>
        </UserObject>
      </root>
    </mxGraphModel>
  </diagram>
  <diagram name="A1.2" id="zKs9U1olNQPE9AwKT6E_">
    <mxGraphModel dx="1889" dy="1429" grid="1" gridSize="10" guides="1" tooltips="1" connect="1" arrows="1" fold="1" page="1" pageScale="1" pageWidth="1100" pageHeight="850" math="0" shadow="0">
      <root>
        <mxCell id="0" />
        <mxCell id="1" parent="0" />
        <mxCell id="dmNoWDaNXgzDeypHpz59-3" value="Is an Expert In" style="edgeStyle=orthogonalEdgeStyle;rounded=0;orthogonalLoop=1;jettySize=auto;html=1;" edge="1" parent="1" source="dmNoWDaNXgzDeypHpz59-1" target="dmNoWDaNXgzDeypHpz59-2">
          <mxGeometry relative="1" as="geometry" />
        </mxCell>
        <mxCell id="dmNoWDaNXgzDeypHpz59-1" value="Person" style="html=1;outlineConnect=0;whiteSpace=wrap;fillColor=#ffff99;shape=mxgraph.archimate3.application;appType=actor;archiType=square;" vertex="1" parent="1">
          <mxGeometry x="430" y="160" width="150" height="75" as="geometry" />
        </mxCell>
        <mxCell id="dmNoWDaNXgzDeypHpz59-2" value="Capability" style="html=1;outlineConnect=0;whiteSpace=wrap;fillColor=#F5DEAA;shape=mxgraph.archimate3.application;appType=capability;archiType=rounded;" vertex="1" parent="1">
          <mxGeometry x="430" y="280" width="150" height="75" as="geometry" />
        </mxCell>
        <mxCell id="dmNoWDaNXgzDeypHpz59-4" value="Application" style="html=1;outlineConnect=0;whiteSpace=wrap;fillColor=#99ffff;shape=mxgraph.archimate3.application;appType=comp;archiType=square;" vertex="1" parent="1">
          <mxGeometry x="430" y="440" width="150" height="75" as="geometry" />
        </mxCell>
        <mxCell id="dmNoWDaNXgzDeypHpz59-5" value="Is Realized by" style="edgeStyle=orthogonalEdgeStyle;rounded=0;orthogonalLoop=1;jettySize=auto;html=1;entryX=0.5;entryY=0;entryDx=0;entryDy=0;entryPerimeter=0;" edge="1" parent="1" source="dmNoWDaNXgzDeypHpz59-2" target="dmNoWDaNXgzDeypHpz59-4">
          <mxGeometry x="-0.0024" relative="1" as="geometry">
            <mxPoint as="offset" />
          </mxGeometry>
        </mxCell>
        <mxCell id="dmNoWDaNXgzDeypHpz59-7" value="Organizational Unit" style="html=1;outlineConnect=0;whiteSpace=wrap;fillColor=#F5DEAA;shape=mxgraph.archimate3.application;appType=resource;archiType=square;" vertex="1" parent="1">
          <mxGeometry x="680" y="280" width="150" height="75" as="geometry" />
        </mxCell>
        <mxCell id="dmNoWDaNXgzDeypHpz59-8" value="Consumes" style="edgeStyle=orthogonalEdgeStyle;rounded=0;orthogonalLoop=1;jettySize=auto;html=1;entryX=1;entryY=0.5;entryDx=0;entryDy=0;entryPerimeter=0;" edge="1" parent="1" source="dmNoWDaNXgzDeypHpz59-7" target="dmNoWDaNXgzDeypHpz59-4">
          <mxGeometry x="-0.0605" y="3" relative="1" as="geometry">
            <Array as="points">
              <mxPoint x="760" y="478" />
              <mxPoint x="580" y="478" />
            </Array>
            <mxPoint as="offset" />
          </mxGeometry>
        </mxCell>
        <mxCell id="exvTPnbZ3OR1FT2SD4V2-1" value="" style="rounded=0;whiteSpace=wrap;html=1;fillColor=#000000;strokeColor=none;" vertex="1" parent="1">
          <mxGeometry y="80" width="1100" height="40" as="geometry" />
        </mxCell>
        <mxCell id="exvTPnbZ3OR1FT2SD4V2-2" value="A1.2 Application Reference Model" style="text;html=1;align=left;verticalAlign=middle;resizable=0;points=[];autosize=1;strokeColor=none;fillColor=none;fontSize=24;" vertex="1" parent="1">
          <mxGeometry x="10" y="40" width="390" height="40" as="geometry" />
        </mxCell>
        <mxCell id="exvTPnbZ3OR1FT2SD4V2-3" value="" style="shape=image;verticalLabelPosition=bottom;labelBackgroundColor=default;verticalAlign=top;aspect=fixed;imageAspect=0;image=data:image/png,iVBORw0KGgoAAAANSUhEUgAABgIAAAF0CAYAAADhDyIPAAAAAXNSR0IArs4c6QAAAARnQU1BAACxjwv8YQUAAAAJcEhZcwAADsMAAA7DAcdvqGQAAHPuSURBVHhe7d1/bB3lve/7Z+xAj9TQhlvRA+igOCpQCZDihFbqj6PG1tk9VNBcklLntKANibQBiVZKDEnuf43NfycxSZBaJOBIcaha2HH3jhEFwe7ZsoMuZUuUxJGaSqWgOGIL2CAubqFXtyT2c+cz8yziBMeeZ9astZ6Zeb+kxZpZ7LLt5VmzZr7f5/v9GgAAAAAAAAAAAAAAAAAAAAAAAAAAAAAAAAAAAAAAAAAAAAAAAAAAAAAAAAAAAAAAAAAAAAAAAAAAAAAAAAAAAAAAAAAAAAAAAAAAAAAAAAAAAAAAAAAAAAAAAAAAAAAAAAAAAAAAAAAAAAAAAAAAAAAAAAAAAAAAAAAAAAAAAAAAAAAAAAAAAAAAAAAAAAAAAAAAAAAAAAAAAAAAAAAAAAAAAAAAAAAAAAAAAAAAAAAAAAAAAAAAAAAAAAAAAAAAAAAAAAAAAAAAAAAAAAAAAAAAAAAAAAAAAAAAAAAAAAAAAAAAAAAAAAAAAAAAAAAAAAAAAAAAAAAAAAAAAAAAAAAAAAAAAAAAAAAAAAAAAAAAAAAAAAAAAAAAAAAAAAAAAAAAAAAAAAAAAAAAAAAAAAAAAAAAAAAAAAAAAAAAAAAAAAAAAAAAAAAAAAAAAAAAAAAAAAAAAAAAAAAAAAAAAAAAAAAAAAAAAAAAAAAAAAAAAAAAAAAAAAAAAAAAAAAAAAAAAAAAAAAAAAAAAAAAAAAAAAAAAAAAAAAAAAAAAAAAAAAAAAAAAAAAAAAAAAAAAAAAAAAAAAAAAAAAAAAAAAAAAAAAAAAAAAAAAAAAAAAAgAwi9wzAsdb2uU3pjR8r0s1zrHPP803Hj1Pp5jn0uh4yHUVRYxsAAAAAAAAAWo5EAGrFWqugvoL7Pe6xOn7otcZ+O03Fjxn3/Of4Man9KIq0DwAAAAAAAACFIBGAynIr+xvBfgX/L7S6P0RKBqhy4LjbnqKSAAAAAAAAAEAeJAJQCdZaBfwV6FfLHj3Pb+9TFaoeUNWAkgOTURRpGwAAAAAAAAAWRSIApeRa/GyIHwr8N1b+15GSAUf0TGIAAAAAAAAAwEJIBKA0rLVa6X9X/FDgX9s4V6Ni4Gk900oIAAAAAAAAgJAIQNCstVr1f2v80HNZ+vuHQrMFDsaPcZICAAAAAAAAQH2RCEBwCP63BEkBAAAAAAAAoKZIBCAIbtjv1vih4H9d+/23i9oHNZICaicEAAAAAAAAoMJIBKCjrLWb46dG33+0l5IA4/Hj4SiKVDEAAAAAAAAAoIJIBKDt5q3+VxKA1j9hSKoEoigaTXcBAAAAAAAAVAWJALSNtVar/hvtf4L34ccfmdfef8Ptpd766B3z1of/4fYW9pUrVrut1PKLl5svf+FLbi94mh+gtkH7aRsEAAAAAAAAVAOJALScG/6rBEBQ7X9efft4Euz/4/tvJAH+tz98J3n9d/HrrXLlJZebK5f/52T7xit6k2clDgJMFjTaBg0zXBgAAAAAAAAoNxIBaBnX/39X/Ojo8F8F+l/7f15Pn99Pn5UACJGSAVcsvzx+vjpJEFwb719y8XL3bztG7YJICAAAAAAAAAAlRSIAhetkAkABfq3016p+Bf1bubq/XVRFcO3/8aUkMaAqgg5WDpAQAAAAAAAAAEqIRAAK42YA7Isfac+bNpgf+H/17alktX/VqULgxitWdzIxoITAIDMEAAAAAAAAgHIgEYCmWWsV+FcCoC0zANTPf3L6JTN56qVKrPhv1t5vP2j6Vn7T7bWNkgAPxw+GCgMAAAAAAACBIxGA3Ky1K+InJQDUCqilGsH/Z/70Qi1W/ft4/Ja9SYVAh6hNkNoFqUoAAAAAAAAAQIBIBCAXa+1Q/LQ1figZ0BIE/7M5cufTIQwUnowfahc0le4CAAAAAAAACAWJAHhpxxwABf4nXOsfLO3oP/yr2wrC/vihCgHaBQEAAAAAAACBIBGATFwboF3xY1vyQsG0+v+Z1/7F/PL3/5QMAEY2GhT85MbH3N7SBkcnzNSp98xd6643m/uud68WTkmALVEUjae7AAAAAAAAADqJRACWZK3dED8diB+FtwF69e3j5he//ydW/+f0lStWm8du2ev2ltY/fMhMnngz2e657HNmc98NZuvNa82Kz34mea1gSgQoIUB1AAAAAAAAANBBJAJwQa4KQAkAJQIKpfY/z7z2gvnd28fdK8jj9htuM9u/dp/bW9qanT83U9Pvur2UkgAbvnq12TXwjSQ5UDCqAwAAAAAAAIAOIxGABblZAIfjR6FVAEoAPHr0CfPWh++4V9CMe9feFT/udHtLizY95LYWpnZBLUoIUB0AAAAAAAAAdAiJAHyKtVbDgAudBUACoDUev2WvufGK1W5vcTN//Zu5dMtP3d7iWpQQmI4fSgZMprsAAAAAAAAA2qHLPQNKAPTGj2PxZmFJAM0A+O4/3mF2HdlNEqAFll+83G0tberUuS2BFjM6ecKs+tHjZssjz5vp9/7iXm1aT/yYiI+xoXQXAAAAAAAAQDuQCEDCWrs5fpqIH73JC01SAuCeZ+83d8cPEgCt8+UvfMltLW36Xf+AvhICa3Y+YYbHXk4qCgqyKz7elBAofPg0AAAAAAAAgE8jEQAlATQQWI+mA7MffvyR2fXi7iQBwCDg1rryksvdVjancq7sVwJgaOy3SUJAiYGCaAbFyfjY0zMAAAAAAACAFiIRUGNakR0/1ApI1QBN++Xv/8l896k7zDOvveBeQStdufw/u61spqaztwZaiFoEqVVQ//Chpv9bjhJPqgwodB4FAAAAAAAAgHMxLLimrLVqAaRWQE1XAagN0Mi//cz88f033Ctoh3vX3hU/7nR7S1uz8+dFBfAT225emwwUXvHZz7hXmjIaPwajKJpJdwEAAAAAQGVt2LfCLDszvz11r+laKkYVTZk5m8YNovh5bOdUsg0gExIBNWTTeQBqBdQUtQF69OgTSSUA2m943U6z/pqb3N7Sok0Pua3i9Fz2OXPgR98xfddd5V5pir7A+0kGAAAAAABQEd/fo5bAvaara6VJF6X2uEeRJpN/RvaIsV3TxsxOkSQAPo1EQM1Ya4fip13pXn6qAtAsAAYBd87jt+w1N16x2u0tTm19Vv3ocbdXvAKrA5QEUDKAL2wAAAAAAMpm08gGY6J1Jp0JOH/Ff7spvjAZ/xxHzLJl4+apwen0ZaC+SATUiE2HAjc1D4AqgHAc/Yd/dVtLm/zDm6Z/6JDba40CqwP0Zb0xiqI0ow8AAAAAAMKkFj8XzW0wxt6qvfTFwER22BzaoYWxQK0xLLgGbEFDgTUD4J5n7ycJEIArL7ncbWVz5MS/u63WUdWBkg2Doxo90ZTGEOFChlgDAAAAAICCqeXPwMgBc9HsB8YkC0/DTAIA+ASJgIpTEiB+UmS2qXIsBf9/ePgeBgIH4srl/9ltZTP93p/dVuvtf+5oMphYiYEmHSAZAAAAAABAQAYe2mwGRo6ZKFKsqRz37HNJ5wGg9kgEVFgRSQC1Arr/Nz8xI//2iHsFIbjxCr8/6dT0e26rPaam3zVrdj5hxl953b2Sm5IBTQ+2BgAAAAAATUgTACfd6v9O9v7PgzmEQIwZARVl00nsSgIoGZCLVv8Pvfg/qQII0N5vP2j6Vn7T7S0t2vSQ22o/DRLet7nf7eU2GkXRFrcNAAAAAICfgd29xkZ9pqtrpUljJguZjv/d8fh5yvxqB3PrRO+b6doXb2n4bzlZ28/fEyARUElFJAGe+dMLZuTlR5KKAITn1z/4hblyebY5Aenq/J+7vc7o7fmimdi1yaz47GfcK7mQDAAAAAAAZKc+9lF0V7yl/vW+MRK1k5k0kTloDm0fT1+qmU17hoyNdrm9EptbY8Z2UhWA2iMRUDFFJAHUBoiBwOG65OLl5sidT7u9pY1OnjBbHnne7XVOz2WfM4d33JokBZpAMgAAAAAAsDi1sTFWAeye9IWmTRsTDZuxB0bdfrWlVQBlbAG0sLHtxD+BGDMCKqTZJIBW/+96cTdJgMB9+QtfclvZHJ9+1211loYH9w8fShITTdjMzAAAAAAAwIIUwB4YmTBpH/uikgAS/7fi/6Z65G8aUXVBdSVJlC7FlqqRBADwCRIBFWGt1RdcU0mAe5693zzz2gvuFYTKe1DwqfYOCl7MzF//Zmb+37+5vdxIBgAAAAAAzqU2NqbrWLzVyl72Pcaaw2Zg5IDZsC93J4ZgJe9hcr9dpd9t2j0DtUdpTAVYa3WCzp2t1TDgB/73T8xbH77jXkHIHr9lr7nxitVub2mdHBS8kImhTabvuqvcXlP2R1E06LaBMKUDyXSO7jVdupju+nx80m6cq9PX89HFbOOCdsZEyUCzWDRl5uyMObNsyowPqqdpfaX9YPXdGCYGlqHVktWQgQ714/gH0E4hnw8bOC82RwH5i2YVvG73Sv0p09290Tw1WI1As5IbxmxOdypl0oxt73fbQK2RCCi5IpIAqgRgKHB5aD6A5gRkEcKg4PPZQw+4rUJsiaKoHj0aEbakh2Z3r4nmeoyN1sWvqEqryFLkvDQQazpNFERTxs5N12ZIFokA1B2JAABIkQiotjQJkDsmUoAZY+b6S3+NXd0kgJAIABxaA5UYSYD60XyArEkAmZoOpy2QaGBwwQ7En4OqXqwgVLrZUF/QTQ/tS24sB0ZsWoJsDxgbaSCZbjRDSAKIvh82JD+XSpj1c+rn1c+tn1+/xw/2hfKzAgAAANl1PgkgqvqdKPU1dbWTAEJrIMAhEVBu++JHri+8Z/70gvnh4XtIApSM73yAI394022FoeeLn3dbhVIyoJMXfqiDs4H/Y/HNxgdJUN3abfG/CXt12YX1JT+/fo/Z2ZPx76XHgWQwGIkBAAAAlEHaDiiEe8EV8TX14VLODPj+Ht3TVHtxXWRPuS2g9kgElJS1VkmApk7WV15yudtCWXzFYzaAhFYR0LvyMrdVuAmSASiULuIVFB8Y0SAwOy/wX9XjTMH/+DvFHnCJgWNp4kMtjwAAAIDApAHsds8EWEyvuWhWcZrySFtplutnBtAUEgEl5Fqh6Esvt/XX3GR+/T9+YYbX7SQhUCI+Q4Jn/vq3ZEZASFZ89j+5rcJp5cXh+LNRvhUYCMf84L9W/SsoHtbNRTv1pomPpJVQWi2gqggAAACg01TBGmYAe3NprpnT9/Cw26s220VrIMAhEVAy1lq1oVBwqhBKCDy58VFz+w23uVcQKt/5AJOBtQWSddf/F7fVElrRrP6QgB9drCvQTfD/QtJqAVVFKClApQAAAAA6aTZpCRQmm7RwDl/6HtZjIZ2dIxEAOCQCSsRaq2BM4RlbBZe3f+0+8/gte70CzWivvpX/1W1lc+REeImANuiNPyfhXhQiHFr9r3JiBbaTIboV74tZnJ55lQLx46HNpeyFCgAAgHJSO5uw53T1JNfIIUvbKpV11hmAJpAIKAnX8kTBqpYFXNR25snvPZqsPEd4+lZ+021lM/mHf3db4ei5LPuw4Lc+esdtedscf14I6mJhKoFNV/+fdOXEDMbNrzepoNB7qSoBhgwDAACg1aJoq9sKmN3lNsKTtgQK9+drhWXLqAgAHBIB5aGAVctbMVy5/HLz2C17SQYERpUaPn+T6ff+Etx8AOm57HNua2nPvPYvZteLu92etwOW4cGYr5EA0CDcdPU/q9iLsyKpEkiHDB9wq7QAAACAYqULT8rQxrMn2Gvi2WSgcb3uhZ4aJBEAOCQCSsCtbm7bCmcFnUkGhKWvx7MaoCJtgZ557YVmkgEMD8ZCCQC01mYTRRPxez5BQgAAAACFOnOmPLO8urpudVvhSK/PmYcG1BiJgMC5Vc1t73neSAZcecnl7hV0Ur9nW6CnX3ndbZWfkgHP/OkFt+dFq0WYF1BXJAA6re+ThACDhQEAAFCEKAovuH4h1oYXcK9bS6AU1QDAPCQCAuZWMxc+HDgrJQMe+rsH3R46RX8H//kA5a8IePXtKbdlzK4ju83kqZfcnpcN8edIg5BQFxpcu2nPkJmdPRbvkQDovL74UkODhQ+4Um4AAAAgrzJVnPYk9yahCH/IcquQCADmIREQtlyDLBUEVo/4Iqg90O033Ob20Am+bYHGX3ndzPz1b24vHD7zARaiZMAf33/D7XnZ5yprUHWbRjaYi2aPGZusdKEtVFg2J8kZJWkAAAAAX2VcVLLsTDj3ofWsBgBwHhIBgbJpGZn3atbRyROmf+iQWfWjx5PHlkeeb3po7L1r70xWpaMzfNsCHQl0PkDPFz/vtvL58OOPzAP/+yfJcw7MC6iytA3QYWOTCipWnYdrRZKkGRg5xvwAAAAAeDlzpnzX+VFXGD9zmkSp6/U3FQHAPCQCAuQClt69zRXwV+C/QVUBSgys2flz0z98KHe7GCUBqArojDxtgVQRUFVvffiOeeA3P3F7XnThwwqIKvr+nm2uDRBDr8qjN5kfsOmhfUGVSwMAAABFiubCSATMztb3Xjiyp9wWgBiJgDBpVatXcEStYDbuedrtfdrkiTeTSoHB0Qn3ip/11/53t4V28m0LpGRQUW2hiqZjsAi/e/u4efToE27PyzZrLauQq0IBZFUBRJFaqBFMLiPN77holmHCAAAAQGuxaApAgkRAYGw62NQ7WLlx5OlMAeD9zx1NKgR8e8hfufzyZF4A2su3LdDByRNuq/yu/cLVbuvTHj160Lz69nG35+UALYIqQG1lLpo9GW9xQVt+vfGliFoFMdQbAAAAKNrAQ2o5XeN74GjKbQCIkQgIiLU2V/uS4bGXvVZba9W4WgX5JgP6Vv5Xt4V2uPKSy2vdFmipuRT3/ybXvABaBJWdhs2qrQxVANWiyo6BkQO0CgIAAEBlzJkZt9VB9la3UU9zNoC/ARAOEgFh8W5xoaD+0Nhv3V52+t8Ne/7vvnLFareFdvBNAoTcFqgVkuHB+eYF0CKojNJWQBPJsFlU1eakVRDJAAAAAFRDCKvRqaIG8AkSAYGw1urk7HWCXmouwFLUJsinKmD5Eiu0Uazbb/ie28qmSm2B5JKLP+u2LqyJeQHew7jRQeohf1EyEJgETvXpb32SuQEAAAA4x692TLqt8li2bNptdcamkSokAZRMGTWRHTYm2mKs7Z/3GExej6L98f+Njo9Pr/4/s4zWQMA8JAIC4HqWqxrAy+DBiaZXgPu0kmFGQPuo+kJzGXyMHgk/ETD5h+wtrL68yIyA+TQv4I/vv+H2MuuJP3dDbhsh0zwA06VWQGrrhHqIvxPjvznJAAAAAJyrTEHdGfPUYGcTASZa5zbKJv47R1vM6e5Lzdj2NfFjizm0Y8iMPTCaJITOPvYnrx96YDD+v+mPH5ea7u5VJjIb4//GaPyYNuODtAYC5iEREAYNSfQKcimAP1rACvBTNWolUybrr73JbWWj48F35kPofCpQhl78n27Ly1Y3lwOh0mAr5gHUlZIB3glyAAAAVFgUlakqoPM/a/la4k4nQfwk+P/AaK4gvpIvh7aPJ8mDse2r3KsAHBIBHeYCkV49rxXw3fLI824PVaMhueuv8UsEPF2SIcFT0++5raX5VKCoIiBHi6BclThoEyUBjKWFU33NmNPdWskDAAAApOzsQbdVAlH+Ps5FSOdulanCdjS+/l+TBPEBtAyJgM7zDnQpCVC11d846/YbbnNb2ehYKKI6pB3+7Hnc+iQDcrYI2mAZHByegZH4vEgSoMZmjJnrp4wXAAAA5xjbqdZAHW63k8mMOd3V2YD2xbNlus8dTVbwc/0PtByJgA5yAUivk7N6rPv09V/K6p7L3NbSPvz4I7eFVlp/7X93W9mUYTZAw9T0u24rmys85yTkbBFEwDkkSRLAbE53UEvWbnQ3eQAAAMB5omG3EbLxzge1bVmqAdIkAIC2IBHQWV4ByKQl0M+KbQnUd91Vbmtpr/mvtoYnzQbwHRL88LOvuq3w+Q63zjowuCFniyANDibwHAKSANBQMA3+AgAAABai3vGhVwV0d3c+WWFLMSh42pzuHnTbANqARECHuMCj16DSh5876h1IXUxvzxfNis9+xu0t7a2P3nFbaJV7197ptrJRhUiRx0Sr+VYEfOWK1W4ru1/+/p/yHKu74s8kA2k76ft7NDSdJECdWTvobuwAAACAC4tMuMHjyA4nA2s7L/yKAGtpBwS0GYmAzvEaEKxg79DYb91eMe7qu95tZZOj/zo8KOjtWw1wsCSzAeZT8iKrG3MkAtTCauTlR9xeZkrKKRCNTtBg4ChicHO9jZpf7djvtgEAAIALSwfKhjhUdsp8vKzz17TpoODQF7pNUgkMtB+JgA6w1g7FT17VABoQXLQNX/Vru/Lq27RsbqV7197ltrJRcqgsQ4Lnm5p+z21lk6cqYPLUS/HxetztZbaVqoAOUBKAwcB1N05fUAAAAHg53a3rx5BWk8c/y1wYK9yXnSlDNUAZZj0AlUMioM1coHFrupeNVlBPnsi+ijoLJQF6Lvuc21uaWq1QEdA6Cnb7rn4vYzWAHPdsD9S38ptuy8+uF3e7rcz02aQqoJ0GdscXqJZKgHqbcjdxAAAAQHZJwH2uP94KJBkQDZqxnWGsnoy6vBaedsAU1QBAZ5AIaD8FGr1WHRc9IFi23rLWbWWTY3U1PPhWA2hw9P7nyjMkeD7fpNaNV+RbzPDWh++YZ/70gtvLjKqAdknKVbsm4i3e7/rScLB++oICAAAglyTwHkIyINoS1KyraC7sRIC1B90WgDYjEdBGeaoB1Pql6GGwqgTou+4qt5fNxPRLbgtFW3/tTd7VAOOvvJ4kA8pIx7PPMf3lL3zJXHmJ3+yEBs0K0MwAD/qMUhXQDhfNkgSoN63g2kgSAAAAAE3peDIgsCRAouvzbiNMkaUaAOgQEgHttSF+ZA58KdA7eFCxsmLtGviG28pGbYHUcx2tce/aO91WdsMFD45uNyUyfORtD6QkwC9//89uLzOqAlptYEQzAcLvW4kWim/WQimdBgAAQLnpurK7e0281c7ry+n4mnZNeEmAmLUh32vNcB8AdA6JgPba5Z4zefi5o4Wv+lY1wOa+691eNs+89i9uC0VTS6Arl/utdm9FlUi7HfFsD7T+mpvclr9f/v6fqAoIyaYRJUQ3pzuoJ62a4uIfAAAABXpqcNqMbV9jorYMoR01p7vXcE2bC+8Z0EEkAtrEWqvAV+Y+ba3qAe9bDSA5+qwjA7W7uf2G77m97MpeDSC+FQFqD6RHHjmrAvyGNiCbH+zrMdaoGgB1Ze1gkKumAAAAUA2HdgyZ7u5V8VYrrjkn4+vZfjO2fUvgLS7DnREQ2SNuC0AHkAhoH6/ZAK2oBljx2c+YDV+92u1loySAhq6ieNu/dp+55OLlbi+bKlQDNPgmA26/4Ta35S9HVUCPS96hSLOzSgLQdimlG4dJE0X7k1VLuqHQQzctY9ujCz5Od1/6yf+tgurpiqfx+FGGlTWj5lc79rttAAAAoDXS6oAtybW1rreTNj656bp9NG0DtL0/vp4tQ3/7cBMBtquZvwWAJkXuGS1kre2LnzI3+1cCYNWPHy88ETA08A2za+Drbi+be5693/zu7eNuD0VRz/u9337Q7WWj42HNzicqkwhQi6oD933H7S1NgfzvPnWHb0D/E2rD5DmPYSqKIvWZRBE27RkyNvJqj1YxuoEYj792j5jursnk5qQVvr9H3ze98Q3PuvhZ26EkXkaTm7F20nsRRcUP2imKkjnluJFEWQ2M6PjXeSA8HP8A2ink82ED58XWG9ita+QN8T3J6nhPgfIL9dHXdfp0snJ9zkyW8u8yMGLdVng41oGOIhHQBtZarYLNvLp4/3NHzeBosbELVQOc/OndyXNWr7593Nz97P1uD0VRFcCvf/AL72qA4bGXzVAF2gLN98GBH3sdkyP/9kiyuj+PnO97fxRFXKQ0SxfdpuuY26uT+AYiGjd29mDH+ocqGN7VdWv8RaTZDJ1aGTRlTnf3t718mkQA6o5EAACkSASgbkgEALgAWgO1mLVWgRevFiMPP1v8bIBtN9/oFXCVR48edFso0vC6nd5JgFbNjOg0//ZA/jMVGpgV0Eld+9xGXYwmF7hj21eZQw8MdnSImC6yk58h/ln0MyVlzUl1Qrt0JgkAAAAAIDwkAYCOIhHQel5JgFb0gFcCYOvNa91eNm999A4tgVpg/bU3JW2BfA0enCi8VVQINAvDx5XLL0/ew7xyDL7ebK2lp30zvr9nW/zPsFdgFWMm6def9vjfEuQFrn4m/Wyn459R8wWa65WaxYwxc6EPUgMAAAAAoBZIBLSe14pi38BoFvmqAZ5wWyjKl7/wpWRAsK+p6XeTBFEV6XfTw4dnn/9zaPB1nmSAe4avDftWmKjycwHSBICC64d2DLWs93+RFJjX0F5VCZhIfftb8TMrCdDf0WoIAAAAoG7SmWEAsCASAS1kPXsyT/7hTe+g6FLyVgM885p3sBSLUCugh779oHdLINnySLX/Fu2uCsgxY2Cre4avi2bVEqjKFRXjprt7TZIAKOuq97EHNMS3kRAo8HeIOtsSCQAAAAAAnINEQGt5VQMcbMGq7w1fvZpqgAA8dsveJIDtS4Oji04OhUbVDr5tj1RZkSepIn98/43k4aHHWtvrtpHVD/Z5z0cpkWk3A2BjKSoAslBCQFUNUbTfvdKEaEvy3wMAAAAAAMEgEdAirq+4KgIyUSC0Fe1fdg18w21lQzVA8TQcWG2BfGlWxPDYb91etflWBSgJcPsNt7k9f788QVVAy83OHnBb1aJA+enuNZUccqWqBg0WTocK501wjJIEAAAAAAAgPCQCWidzEkBGjxSfBOi7/irTc9nn3F42VAMUS0mA9dfka2Oz5ZHnKzkgeCH7n3vV+3fVrIArL/GvspDJ6ZfMhx9/5PYy8fo8117al7JqvSlnTGQ2JoHyqg+/VZJDyQ4F9f2ozZBaDAEAAAAAgMCQCGgdrxXEDz/7qtsqDrMBOquZJMDw2Mtm8sSbbq/6lATIMyh7+Fs73ZYfJQEmT73k9jJZ4WZ+IIvqDQieSgbfHto+7varT8mOJKifeXbAlDndPei2AQAAAABAYEgEtIC1Vr2xM/cU15BgtYEpkioBNB/Axy9//89uC81qJgmgmQBDNWkJNF+eqoAbr1ide3BwjqHBt7pnLKZ61QBaHd9f28G3SZufObUKWiwZoCRAf+UrJQAAAAAAKDESAa3htXK4VUOCfWiFNNUAzVPv+sdv2Zs7CaBA+MY9T7u9eslbFZB3cLAGBqsKxgMVAVlUqxpArW4IcCsJ0p20ClooGTIT/7uNJAEAAAAAAAgbiYDWuMs9ZzL+yutuqzh39V3vtrJREsCzZzrOo4HAT37v0WSVel4bR54uvDqkTFQJ4fv7Kwmw99sPuj0/nlUwtAdayg/2qRqqKtUA9Luf76nB6WTV/7nJgJmkWkD/DgAAAAAABC1yzyiItXZF/PRBurc0JQGKXgGutkAnf3a328vmu/94h3nrQ6/V0Zjn3rV3JcNrmzE4OmH251gRXzWqZjm8w78Lz8i/PeLd7kfDhn/9P37h9jIZjaKkZzoWMjByIP7n5nSn1EgCXMiGfSvMRbMT8VZvOjw54LkJalMVRfpZw2RtfzKYGSklEs+cUTJRek2X0fVUNnMmfR8jO1PbNl4LGRjR8R9mcpbjH+2i761lZ9KWrVFXj4nmGueZpTXOLcuWTZP0LrmQz4cNnBdRlNCvgce2E4csQtqS1/+7zURTZi6+Zua6ubb4ABbMWqsgmIJhmWx55HkzWnBroG03rzX7NmvhZjavvn3c3P3s/W4PPr5yxWrzwNd+lFQDNEPHgI4FpCaGNpm+665ye9n98PA9ScsfH09ufMzn7zcTRdGlbhvzpQHizEnQgJEEWIoCtnOzvcEPTyYREKb0pqXXdHWtjN8DBed04+Jx85KJWlXpxmY6vsk5lQTzziybql0LKxIB8Xuwuze5QTbxsWYjlWwqweRzzOk40nFz9lgiKBymxndT+rdeF7+iv3XmmW0Z6e+uY+GIsV3x9uwUQZSSIBGAOgn9GphEQHaNhTJd8fnr7HVM0eey9Lo5UoJg7lSyzbmo0vgAFsxaezh+ytw+5NItP/UekLoUrab2mRGw68XdzAfwpJXk6k3ft/Kb7pX8SAJ8Wp6qFlHP/x/+871eba5uv+G25G/pYU2kL0mc6/t7tsUXD/vcXlkx9LZKSAR0XpIgnNsQX22ujn/fNAHQWQriTcU/yxET2cnKB/DqmAhQ4N9G+uwrEKzfPXtliR99T0zGx9Hx+HcZJxjcAe37Wy8lDaBY+3QtzitlRSIAdUIioLzSwH987Zx8tzUWzHSKrnOOJIsgODdVCh/AgllrtSI204VoK9oCyQcHfmxWfPYzbm9xCpiue8K/DUtdKfB/xw23NTUHYL5WHQNVMDTwDbNr4OtuLzvfCpcc7YGGoygacttoGBg5Gf+zkxcqzZoxp7tXkQSoEBIBnZGswO6+K/79Qgj8L0WJgfgmxzwdfIVLHnVJBJw95rQQp1PfQ/ruGK/ssRQCJRYvnu0z1ujGRX/rTgX+l1Lt80pZkQhAnZAIKJdNI/F3WrSuw9cxS0mvc0x0xJzuGueeudz4ABbIpje9mU+4rWgL1NvzRXNs99+7vaVNnnrJ3P+bn7g9LERtY9Zfc5Pp6/mmuXL55e7V5k3+4c0kCVB0RUiV6FjWMe3rmT+9YHYd2e32lvbrH/zC5287FUXRGrcNCf1iM5O5NaziqxgSAe0TRiC2WdUL5FY5EZD2fd8cf8a3xnuhHXPuZnnuYb5XCqAASRr8L+MMoun4GB03XV0P006qw0gEVM/AQ/E5wd7l9gITHTRjD4y6ncVtemhf/LcveuGEEqUhL8Zo03E+Nxjs97CunU2XrmFCTmxfSHqdY+1BzlnlRCKgQNZarRLele4tbdWPHjfT7/3F7RXDd9AqbYE+TYH/a79wddL/XxUAl1y83P2b4tAOKBvfxNZ8Pse2WgOpRZCHS6MoIgveUPYhwdYOxhcx+90eqoJEQGudDcTqJjz0lf++ZuLfa7T0wbsqJgJUMj87q2vtstw4x7+jR0AIqaTff3x+scn5pczVhvOpSuBhqgQ6hERA9WzaMxSfIzLHXtoqssPm0I5sFeRlODbLKrTPVNiLGPKKr5OjYa5zyqXLPaMY6uOVydT0u4UnAcR39bTaqNSVAv4K9t+79i4zvG6nefyWveboP/xrMjx2+Fs7kyoAkgCdpc/J4Gi+OF7yN7z2Jre3OFXGeOJi7VwKyJSVeh6SBACyUoBOyb+LZk/GNzKaC1K1JICsiG8et5nZ+HfUDbqSSugs3Txr1aT+JmniuSyr5+Jjxx6Ij6P4WNLqVSxKKyR1ftHfOQ3wVSVQImprdJhjAQBqRtfOuoY5e+1cpe+2+HdJrnM+SJJzul5D8EgEFMRaqwM+843i5B/+3W0V6/MZZwM0vPXhO26r2hoBfwX71QamEfB/LN6/d+2dSdC/qL7/i1ECgCSAn/3PHU3aKOWhZID+9kv5nX9CLHPSr/KSnoalK2dsmDHd3VvcNoDFNBIA5QvENiutLCF41zkaRq+bZyVnyqtxo3yMxNIC9J4kq2K7jsV7Vf+cNY6FkxwLAFBh86+d02uYKl87r0gS+Lpe43o5eCQCiuO1Iu7pV153W8Xq7bnMbS2tDtUACv4r8N8I+CvYX2Sf/6w0B6B/+FDhMyHqoplZCg99+8Gk+mMpnlUB3Lg1pH17y8naYXr2Akv4dAKgrgjetVu6OvyYWz1XlZvnXpdYOpx8tuqucX5J27jV7XPV446FCY4FAKiQpIpxz1BNr53j6zWul0NHIqA4Xgf55Il8K5yRjQK/SgAo+N+JwP9846+8blb9+HH+5k1oJFLyUHsnJYKWSgZ4VgX0uioglLct0BQtgYBFfLoVC1Jng3fJoDe0hG6g09XhVX2PN8SfLVUHlLnKIb96B0nO15e8D8kxDwAotU+qGAOdX9E+jevlw7QLCg+JgOJkbhWSt80JslFfeLX96XQCQMFrtQFqZjU7ztK8gLxtlbIkA159e8ptZUaGu8xtgTQgGMDCVNJb/lYsrRZ/B3QdS5Il3OAUR++lkiz1uIFeEd8k70t+3zodQ7p2uGj2GEGS8+j9UAUMCUYAKJ+0inEi+V6vThVjEfSdf9LFDRAIEgHFyRwUPHKiNfMBfC1vwSDcTlMSQH3hO00tgFQFQCugYun9zPueNpIBfSu/6V451x/ff8N8+PFHbi8TbtRMVNZZCRoQPOm2ATSkbTomkpJebmKyUbKEG5xi6CZa72X9Eu19ye9d9RL6NMlzOBmYm7TawgLia8uu+laKAEAZna1iZKHgwlYk3/1aPIMgkAgogLXWKyDYyoqAqen33NbStDpawdGq0FDYTicB9Ldds/Pnycp1qgBaQ+9t3s+Qjve9334wSRgt5LX333BbmTAw2NpyXuwwIBj4NFUBqFUJNzF5pDc46nVOdUA+yWC5LvWJr+v7p+qAicoGgJXkUBWAVgZiaWmlCOcTAAhZuoCGCrestHhG7xdzcTqOREAxvBIBanHSKn/2DD739Sy8OrpsFOAdWte5JIBWqauHff/QoZb+fZFSu6Vm3mcljG6/4Ta3d5bvnAD3XE/pF3gZ34NxBgQD8zRW6VIFUAS1VKK1h68kCcDxl2gEgKtEyY10GDA3/n50PqlX2ygAKAtVgqYLaLjm89ObvG9cK3cUiYBirHbPS1LwspUrxX1XSv+f1yy8MrpsFNRt90yA6ff+YobHXjarfvR4ukqdYcBt0xgerL9BXtu/dp8ZPi955DknYIW1tr43tbNz5Vw1bO3DbgtA2opFATpW6RYn/l7oim9wFNzGks4mAXDWZlOFuQFpkvGA65eMfNJ2WQRMACAcagWUtrkjUZtP/L51TXCt3DkkAoqR+eLMp3VPHr6rpG+8YvUFe6aXye03fM9ttZYCz1r9rxXpSgAMjf22qWA08lMyoNlBzOuvSQdLN1pkaU6Ap/remEXZE6ABYTYA0JD0tE9asRBgagl7oHIru4tGEmAxaqVT3mSAfu40ychNfvNcwIRkAAB0VCPBTSugIsTfbbpWJhnQCSQCipH5wux4i9vGKCjqmwzQqugyzwpQIqNVP7/ez/FXXjeDoxNJ7//G6n+9hs7Tsa7KgGaSAZqV8esf/CJ51rDgtz56x/2bTOp7U1bK+QDRQbcB1JsuulnJ1A7VWNndCl1dt5IEWFJasVO24yetNNLQZwLXxSEZAACdRIK7RUgGdAKJgCa51iCZL9CnTrW2IkAOTp5wW9k0BqiWlYYEF0FBZbVWUrufxor/S7f8NNne/9xR7wQL2qOIZIA+A6oMUIuptz/8D/dqJmVcFV+Ust2MzpixB0bdNlBfySp1ArBtVO6V3a2igXHIolzJgCRQXeuhz61EMgAAOuFsEoDzb0uQDGg3EgHN8+oR3o5g8ugRv0SAqEWQeqaX0Ze/cLXbykYBYwX2FfBXAFkr/aNNDyXPGvardj9a8U/Ln/IoIhkg+gxc+4Uvub1M6jkj4Pt7yjgfYNw9A/WVtqrhQrv9yrmyG6HQ8RN+8o4kQDuQDACAdiIJ0CYkA9qJREDzMp8QFKRsNlCZhf5/qI+9L62GXn9t+YYHK4mRlYL7q378eNLqRwF/DfhlpX81FJUM8GwzVdcLgvL93pF52m0B9UQSoNNIBqAZG9xnOEwkAdpJyYDDnEsAoMVIArSZ3Ueiuz1IBDRvpXte0tSp9gWch8d+67b8DH9rZyWGB1+I2ia1IxmDzmgkA9qZ3HHtweolisrWEmnGHNpORQDqiyRAKEgGoBmbg1wtRxKgE3pccAoA0AokATpBiW6uk9uAREDzMp8YpqZbPx+gQSvf1fomDw0P1uDUKlp52efcFqqqA8mAOrYHKtvvTBIA9bVpz1D8T5IA4SAZgCaodD6g1XLJcdylRCPHc/v1mk0P7XPbAIAipS35SAK0XyMBgxYiEdC8zBe+f27zSnS1vskTDFVrlMdu2VuaZMBbH73jtpa2ue/65IFqU9WHkgGa9dAGdbxAKNmMgOiI2wDqRauHbbTL7SEcSgYcdtuAp4DawqTHMYGSTtHQ7U0jG9weAKAIaZKVc2vnkOhuscg9Iycbc5tLUmBSPenbqbfni+bY7r93e34+/Pgjc8+z95s/vv+GeyVMj9+y12tOgGx55PlccxRQPvs295ttN691ey0xHEWRVtzWQ1om+YHbK4fT3Zea8cEZtxeupOWDvcvtoWFse7/b8qOh1lEU7ooSa/vNr3ZMur3ipe06jrk9hGk0Pr63uO3iDYzo+C/jcHcsbTw+dja67c7QTboC0ei0GdPdvcY8NTjt9rGQMpwPW31dUDWqeAx1sUNkh82hHdnuD/mubp08n6n0fizcmTx1wjmxZagIqDhVBGgwbh5lqQz43dvH3VZ2B+77jhka+IbbQ5Xp+Ffip4UyzwmphGVnyrbyb7oUSQCJ5tRySTcCPM59wFfariPcJAgawuz5jjLY0NFjR6vQSQKEYoWZTVpYAACakSyisaxED0UUHaCVZmuQCGiCtdYrQNHuaoCG/c8dzb36vZEMWH/tTe6V8Eye+r/dlp9dA19PEgKoPh3/a3b+PJmd0QL1mhEQdZXt92UVAeonbdfBhXMpxDecIfV8R4nEx04nbpB/sK/HWEPgOSx95vt7SMwAQF7pIhpm3oSlx1w8R4vTFiARUBODBydyD09VMmD4WzuDTQaoddGrOaoCRPMCSAbUg47/NTufaNfcgOpKV62Xh7X5Tg5AWaXDgamkKI/0xpMVT/CnVn3tD8inq885XkMTRbs4jwBATmnAmYUZoVH1odq9olAkApqTOSDWopXImTWGpzbzcygZcO/aMNtXP3r0oNvyp2SA5iis+Oxn3CuoKn0ONu55One7rAuo2RdT1+fdRllMuWeg+rSynOHAZdTLiifktKGtN8jVSDSql76qBUeTPt6fekT73b8vW899JYZoaQEAvvQ9Wv52d2qFu8h3W/xI/3357o2jiO+2gjEsuAnWWl0MZ7pxm/zDm6Z/6JDb6xwND57YtampoPczf3rB7Dqy2+2FY++3HzR9K7/p9vxpxbiSJQoWo/r0WThw303Jc7OimNusvrINtBrbXp6/TchDzzop79+wjsOCB0Y0HJjVTGVV9DHBAMK6mI7Pk6vcduuoJdDsrM4xZVt1Ph1/F4zHH7Aj5uPuSa+5QVphf/Fs/BmK1sWfzw3xKyWoipxbY8Z2sgjifAwLrh6GBWMpWT9TAyMn43+Wrf2tvsvGTWSeNl3dU94D43Wf1BUfdza6Nd4rwb1DtMWMPTDqdtAkKgJqpohg9/prbjJPbnwsaRkUEiUn1CYor0aSpIjAMMLX+CxohgYqqxxDgoEipCt1SQKUmYaiAf562jI4uFwtgWbiz9P+NCi+fZU59MCgObR93CsJIPq/1/9O/3v9dxRU0mrLoHWxchIAskqvn8uUBBg1kdkYfyddGj+2JN9RvkkAUYJEyaqx7WtMd7cWE+i7LeB7Z0v7uwKRCGhO5hYZ0+92tjXQfEUkA778hS8lQ4T1HIoPP/7IDL34P5PnvEgG1Is+A2oT1GzbLN/B4SVXpi9gVsShHpLhndFWt4fy6nE3pICnFt8gp+2HynCtM5OsxD3dnQb/i14Zr8CJAi9p0CTUldsaHMzqYgBYSrmun0eT755G8L9ISiTov6vvznCT3T3m4jMMxS8IiYDmZF55d6rDMwLOV2QyoJl2PEVTRcB3n7qjqcoAtU0iGVAvkyfeNKt+9LgZHnvZvYJFlGnFMRUBqIfZWZXGs0qmCnRDyoon+GvtDXIZqlVUAZAkAHYMea/895UGTfqTVZkhXmtocDAAYHHluH6e/CQBkGflvw99d+r/j6rpQpyTwzVyYUgE1FgRyQC1B1Jv/pCGCKsi4J5n7286GaABwhokXJS+668yG756tRka+EbyOLzjVjMxtCnT48B93/nkf6f/hv5bPZd9zv2XUZShsd8mCQHN9EAFRPa42wKqK1352fq2IGgXBn4iHxu15mI8bTsUctuE6aRljyoAWp0AOJ9WZXZ3K2ASWgUiVQEAsJiB3VrcFvL180z83aa2dP0tTwCcT9V0p5PvtmIrD5oXXyPPaV4PmsSw4CZYazMPdtFKYwUZQ9Roh9PMAGGZPPVS0qe/mdY8RVKSYnjdzqYrFrY88rwZnTzh9rLRe9p33X8x666/KtluZdBeCR21tTk+/V6y3dhHc+yhB9xWJv1RFNVjuNfAiHVb4fMZ1BUChgUvjGHBi6vWkDnd6EzG742SeFNm2bLpC978aEXQsjO6ieuN/86r42e9B2Ub9HZhWv3V7I1ffQYQKvg7mSR/5+LnxY4btQE4c0bHSTWPm1YM0wt7iOKkOd29se0JgPPpfHTRrD5vIVVNjqYrO5FgWHD1VGZY8EObTTRX7DnWRivjf4Yb5Nb70w5dy0YveD0Q9jlhypi5+Ps8gMHvAyOqCAzpWFJFnloYoQkkAppQlUSAKFh94L6bmm6H89ZH75gHfvOTplbjF03JAA04bsZSfz8lUbRSf9116ar/ZpMqzVKVh1a1KzmgZ7W+gR9VYvTFf8+MSASEiERANZAIuLDQf8dspuPfYdzY2YNN3/CkQd4N8X9PK6PL1MZsIc0H8aqdCFDgNz5u7MGmP0dnjxv1CS57UqDYG+SkGsCG2hYorEB3iMmAIhKKVUEioHqqkghohdCvD/Ne2xdF3/uzs0pyh0ir8fs7nuCeL7RkgNryFT0noWZoDdQm0+/92W2FqdEmSM/NuHL55cncgPXXNhd4L5KqFJ750wtuL59dA19P2vOcH+BXix69fvKndyfPaiXU6SSANBIT+rlV7aHV7Qpsq7VQs8keLKjsAadq0spQoMrK3Qd6Ov4FtiRBy6KGeirg9asd++P/5pokoKLVwuW1OblRxfnS40a94BUELiJodva4WVWB46an2JYwNtRzTHir3RW06e4Oa2bA3JmQ214AQGekswFCFF4SQNLv23Ba4FkTTl/ykiIR0CZlaNWiVeRKBoy/8rp7JZ+kJc+3diYr8bUdAiUDdr242+3loyB/I+CvgLpmCCjIHkrwfyla3a7EgH7uDw78OPk9lCxAIRhaA6C90iBxGVd7xzc3LgFQdAuT+RQgVl/VMgd25+a0Qh2pmWSFZeO4adVN8rnHTTg3vT7SipjmbRpRH94Qk1HhtrxRUiky4fxsrZobAQBllV4/h5gkDTMJ0BBWonsDi2WaQyIA51AyYOOep7174i9E7XhUHfDlL3zJvdJZz7z2QtPJAAX8FfhXQL3MK+sbv4cGFispoGeSAlhSOlQJQAjCXc20mNF0JXcLEwDnOxvYHYz3wry5uhBrNyftRjCZDGRtZ5uF9LhZ07Y+xsUq5rixJsRE1FSwSYCGtF1BKC0LCq4QAYCSC7NSaiboJIAo0W0DuiZSS0fkRiIAC9KAXD2apSTAkxsfM7ffcJt7pbOUDLj/Nz8JZqBxCBpthBpJAVUKqOUR8Ck2IiAFhCAN8pXpAji+sUmqALZ07CZHrV/MXNlWea8wF83V+0YnrQLo71if8yT5MLcm3ipXEmlZk4GOMCuOGq13wtfdrcRjGIqqEAGAKgixUsrazg+9zyK5llaLxgDw3dYUEgG4IFUFqFWQqgSatf1r95m9334wiFZBk6deMvc8ez/JgAU0KgXU8ujkz+42225eW4q2R2iTM8vK2SYBqJo0OFyWxFx8YzPX39YqgAvRHAKtuCpVMsDWtT3QTDoMroPDFhvS40YDeMtz3DR7gxzkislosGMJIV/pz9n5c16KVZMAICG2vIui/UkVYmlEoVQF9NIeKD8SAVjU5Ik3CxkiLH0rv2l+/YNfmK9csdq90jl/fP8NkgFL6Lnsc2bf5n6qBHBWGVYqALVQmuCwSwIUMAi4KDqPpcmAUIJ0S6njjU563KQtVsJw9rgpSzKgueMmvBWTk0EkE310d4cSLFlBeyAAiFlzq9sKxYz5uKtcLQjT7+IwYgK0B8qNRACWpCRAEUOERRUBmhugCoFOUzLgu0/dkTxjcY0qgYmhdDgyAKBD0uBeGeZ1hJcEaFBQN+0zXo6gbr2GBod93JQpGZD3BjmdBxRW8imkvsRZpVUBYRwrXV2hBb8AoBPCChxH9uFSLrSLojAS87QHyo1EQJtodXWZNYYID45OuFeao5kBmh3Q6UHCqghQZQDJgGz6rrsqqQ5Q2yASAuco3xd4HXQF198YaF5ZVr9EZkuQwdz5yhLUtbY+K55CP250w572qQ//ez+K1rktP1F3eNUApWqbMI+1B91WZ1nL9RCAekvbAoXUVnPGfLxMPffLZ27uabfVab1ubho8kQhok57LPu+2ym3/c0cLmxvQGCR879rO3m80kgGaHdBOSj68+vbxTx6//P0/mUePPpE89LPM/3dvffSO+1+FQYktEgLnKMfqQADlF0Xhr+xUv9OQ2rpcSLIKa06VAaEHdXtq0R7I2sFSHDda6a3BfuHLl0AKLvEUhRFMzyOyoSQw6KUMoN5CawukVfVlrAaQNDkfxs9+8SyJ7hxIBMCb5gas+vHjhcwNkHvX3pkkBK685HL3SvspGXD/b35invnTC+6V4iiIr//uyL89kiQc1j1xq1n7v/6b+eHhe8zd8X7joX//6NGDyUM/y/x/pxZG+t/oof+G/r0SBvrvdrKaocoJAVU/AEBQ0lUvoV/wTplDDwy67fBp9XkZ2o5Uvw/qeHxjWZ6VcboJVsIrdL694dNgcUgB45nSzQaYL61uCSNYMjtHsARAnYV1HWVny5vkTgWyEDJn9WPNkQhALqoIWLPz50mFQBHS6oBHk5ZBnbTryO4kyN7sCnwF5xXY/+4/3pEE8fXf1Yr/3719vOkBxfpvqGJACQP9d5VQaCQWdr24O0kOtLuCoJEQOLb77xkqXH3lWblgo85PJgeKVIpVL8kK+3JJA9Bhtx7J2+alHNR7v3zHTTrgT33gw+XbIi+8YHH4FSJLCyNYEhmuiQDUUzr7JqQWMtPBt89cSmSPuK3OovVdLiQC0BTNDNDsgCJaBWmQsIYIP37L3o5WByjI/sN/vjcJ5PsE1BXgVxBewX8F5RX4f+vD9gXklXx45rUXkuSAkg/6OdqdGOjt+WIyVPjwjltLPxcDF1SmixZ6BqJigg8Gj5b2xqY7+EB0hSsCosFSlscnP3MUdjWJ9T1n2MDOMVEYgYbmhJEsIlgCoK5sFNb5L4rKn+SeC2ZxoJI88EQioDmZb3ZXVjgoOv7K60mroMk/vOleac6NV6zueHWAgvoK5CugrqC+2vA0+vU3NHr86/9OVQRq+aMgfDuD/4vRzzE/MdD4PdrRSmjDV682x3bfaYYGvuFeATqCfrioltADOd3d4bfYuRD1fVciI2S+bV7KYbLcrV+Snz3kahLfYyawY2y23CsmJbKn3FanESwBUE+hVVVaczaoVF7hfD9X8/q4pUgENOfP7nlJPV+s9upoVQT0Dx0yw2Mvu1eaM786QG2DOkmBc7XhafTrb/TqV2Bd+6ocaPeg4Twav4d+blUL6OduZVJgxWc/Y3YNfD1pF6RKgTLx/XmjKAq7pUSxyrRqk0QAqibkQM6oC6aXV/iJjOoF8sown2EpkXnYbYUpbYmwtPDmAzR67KMoBEsA1FNY1092rtzXy+Eh0e0pcs/IwVo7FD/tSvcWp9XyCpTXgYKoRbeG0Up2BbFRPCVa1l9zk1l/7U1JAqZVlCQaGvut2wub5hyoxVFWUcxtVt+mPUPGRpnOe2GYW1OaQELp3ts2Gdue7/OlgEcUTbi98FjbnwwczSr036e7e1XpEwEyMHIg/ufmdCc4o/HnIXsLo4ERHS8hB/4m49+n322X28DIyfifgSafoy2Zqi42jWww1hx2eyGYjs+T5Zsdcb4ouiv+ZxjnFGsHSzWUu0jhnw/9rwvqLuTr5sgOm0M7FCvqjNCvGfNe2+exYd8Kc9HsB24vDPqsl19vfIztc9ud5nd9DCoCmpT5hrfnss+7reqbmn7XrNn5hBmdPOFead69a+80T258rOPVAVWkqgBVByStjV7cfU77oyI1qgOYHYC2irqoCkBVhLzaZbISSYDEXMiru6u14in0lfQ+rA33d4nmMn4P2tCOr54kkFX2R0iJxa6ulW4LAOph2Znwrp0W+q4o3yOUJIBwv++JREBzPBIB9Qp+qlXQlkeeL2yQsCgJoGSAWga1cuV6nWmmgNodqXWQhgwXTdUimh2gGQIh67vuKreVSb3K1ueC7oW8gOACG0A+QQdwouqU7KUVRKGe16t0Pps2h7aXf1hew7Jl4f4uWQcG22i120JVWa6JANRMV+CVQCgCf2NPJALQUkUPEhYNEX7ye4+avpXfdK+gaBo0rCHDqhJQWyYNTy6KZgeoddS+zdXoBhArU8/85kW2XL9v1gAIELqQAzinu6oT0BVrw01sZO33HrooqtYxk1bEhJpAWuGel8KKuurjbwygXmxEJVQdqAUUMiMR0ATfAaHqO15HjUHCg6MThVUHXLn8crP32w8mjysvudy9iqIpAaDZDN996o7CEwLbbl5rJoY2JYmB0KzuucxtZVKRdhgZlW9wH6vfUBWhHsuTZnywWgnRyIZb+WSjatzo2NnqDX4KN4GU9dzB92X1kQgAUDec9+ogxBZQASMRgLbZ/9zRZHZAkdUBqgp4cuOjSZUAWqdVCQG14NFQ3tBaZ3kmJ0655zopU/JjRWVW0KLuwgwAR/aI26qONOEZ5nmuGiXu0yVMKi8t5ATSUivlfrCPQEldsGoSQL1wHwich0RA8zLfyHj2Ha+k6ff+Unh1gOYFaG6A5gd85Qram7bS/IRAUTMEGnMD9ByK3pVeP0u9WgOlylUFYSP6BqLcQg7SlW5uSGZV/b1CUM33NuTkxlIr5c6cIRFQF6yaBFAvJD/rgFkQXkgENC9zEPDzAbZA6ZRWVAdomPBjt+w1w+t2Mky4xZQQ0AyBHx6+x7z69nH3an5aga/KgFCSAZ4VAdVb1biUsq0AjqJb3VbYupaNGmv7O/gYdD8JQhNykO7MsmqeA61t/sutFSrR6zaqXhXJWSSQAAAIAdVuwIIi94ycrLX74qdt6d7iFPTWanicS73idw18o9Be8enK9SfML3//T+4VtJJaM9279s6mEzDJPInhQ2Zq+l33SvtploeSEh5WRVFUrzkBm0Y2GGsOu71yON19aeX6mBft+3v6TBRNuL1wjG3Pd60S6u/ToOTLr3ZkCxqG+7tMx3+fVW67WsJ9zyfj9zzbtP2BEf38Aa6QmltTydZAsumhffFnO9N9QVtFZqM5tP3CA5o37RkyNtrl9lBlSvr/asd+t1cfwZ4P5/G5LkDY563IDptDO4bcXvuFfg2c99reV+jvA4oTRfvNoQdY1JYRFQHNy9wf3LPdSG20ojqg0S5Iw4SpDmg9JVzULmjy1EvulXxCqAzwnVdQuySAdHWXL4Bz0dwGtwWUT9QV6oqm6p7/li2r37m9XaqaBEjM/dltBMbSDgapLtpkAAAqxnKd44NEQPMy38woyFnkqvcqacwO2PLI84XNDhANE1a7IJIBracqjPt/8xMz8m+PNDVMWJ+RA/fd1LHPSs9ln3dbmVQ4mLGIpwYVICvZ6npbjvZAwEKiORIB7Zae51C8in9vRvW8LgAAAEApkAhonteNYkgDUUM0OnnCrPrx42b8ldfdK81rzA4gGdAeqg6459n7zR/ff8O94k+fk8M7OhO3XXf9f3FbmdQ5UFS20uUNZsM+VsEBRYps5qpIwKl2i7Y5Sws6AADCwCpxYAEkAprk2oJkvujvXXmZ28KFqCJg456nk17xqhQogpIBGiKM9lASQMmAZ/70gnvFX991V5mhgW+4vfbxrAgIc5hkO9iSDQyWZWc2uy0AyCLEhGfYPa5RTjZa7bYAAKgGWqEBCyIRUIzMZcCrqQjIbPLEm8nsgOGxl90rzVGboPXX3uT20GpqD7TryO6kVVBeuwa+ngzvbRe1I/KcEVDfFgCRLd8wsyja6rYAAMBZBEvqgqQPAAC1RiKgGJmDgb09VAT4UHXA0NhvzZqdPy9kmLAGCNMiqL3UKmjXi7vdnr8D933HbbVejtZd9U0EpMMey9YCocd8fw+raQEAQF2R9AEAoMZIBBQjc3sQBRoZGOxvavrdZJjw4OhEU8OElQSgKqD9nnntBfPDw/fkGiKsFfrtahGkdkQeZlxrsDorY1XALrcFAEsJMWBGD3oAAAAAuZAIKIbXqmAGBue3/7mjyTBhDRXO6/Ybvue20E6NuQF5kgFbb17blgSa56Dg+lYDfCJ62m2USR9VAQAyCnHIHN89AAAAAHIhEVCAKIq8bso8Vx3jPKoI2PLI88kwYVUK+Lpy+eXJ8GC0n5IBmhvgS0mAbTff6PZap3elV5KufMNyi9bdVb6KAKEqACgGvaaBc0VdPW6rbOpe4QgAAFALJAKKkzkg5rnqGBeQDhP+ea5hwn0r/6vbQrtNnnop1wDhu/qud1utkaNtF6synxpU4KCM7wNVASgZvwUHbVTdXtM/2FfWgG7oqn3ujebKedxE9pTbAgCgGmwXSW5gASQCipN5dTAVAcXSMGHfZAAVAZ2lAcJKCPjQrIANX73a7RWv7zrvBF05V8MXzdqDbqtcouiA2wLCN2dD7QsfYuucYpw5QyKgVTbsq24CyUYr3VZggk0mAgDQGnaORACwABIBxfEKCvZdTzKgSEoG+AwR1tBgdJZaBPnOC7i1hYmAdX6fyakoihjYKMuWjbutsukxm/YMuW0A+ayobFC3K9CV657tKIO07Ex1E0j6bglRuMlEtB/HAgAANUYioDheN2atDGjW1fgrr7utpd14BW2NO01JAN8WQa1MoHlWG1AN0FDe9kBaubmV9h8ohTPLwv2MXTxbzVYvwc4/mPuz2yivUJMsxSjn7zZHcLg2InvcbQEAgBoiEVAQtzo48416jjYkWMKp9/7itlAWz7z2gnnro3fc3tLUHkiPouVIMDAoeL6ytgfSaubZ2cNuGwjX+GDAQbponduomjBXrVchYGsresyEPHvmVzuWWsBQ/koTAADmW/q7D6glEgHFeto9L0mDSVsR0KwznyHMPsFntNbktN+sAH12ipajQoeLivnOLBt1W2XUS4sglESYfU6trd7q7oHdSgKEWi1UhYBtXyVbSlW70gEAAAAVQCKgWMwJ6KDeldkDxG9/+B9uC532zJ9ecFvZtCIR4NkWiPkA50tXK5c3GWCjXWbTyAa3B4Qq1IFnvZVrsWWjcAO6y5ZVY/DdRXPVO+fa6Fa3FZqlk0esmgQAVBMDg4HzRO4ZBbHWfhA/ZVrlpJ72G/dkLiLAIhQcPrb7793e0hR81rBahOHoP/yr21ra6OQJs+WR591e81SZc/Jnd7u9TIajKGIF+fnUEiGKJtxeGc0YM9dvxnbWtz1CqH/Dse35rlVCPyat7fcKvm16aF/8v9nm9sJi7WD8u+x3e+U3MHIs/meYrYF8Pg8DIzr+Q01qjMe/y0a3XX5Khs3OnnR7oZmM3+t+t31hAyPWbYViJj63VOcYCYWSiel8p3oJ+3yY8r0uqDtV9GoxT4giO2wO7ejc/WLo18B5r+3zCPGzH5mNDPEvWBS/n3W+j/dEIqBg1lr1m868yunSLT81M3/9m9tDXttuXmv2bV76Hqdh14u7k/70CMPjt+zNPMB58g9vmv6hQ26veb7HTmxNFEV8ySxkYERBkDKvDJ42p7vXhN2PvYVIBLSX7w3/9/dsi3+ffW4vNFPx32mN2y63pC1QlxIBIcoW0G0IPfDV3b2qMgHJkD+fWQNSIR4v7QwWodpIBFQPiYALIxFwVogLafiso8NoDVQ8ryX+ni1JcAGrPdvFvPr2cbeFurur73q3lckMSYDFRMNuo6x6zEWzE5XsXY0qCPnc05vcdFZC11a3EaJqreKdO7PZbZVfFIV73NiurMdNeMdXZc4rAICOmJs75bZCEmbVKWqDREDxxt1zJjmGlGIBPV/MPnj5w48/Mm99yLBgpG2BPGcOeH2+a2fsAc0JKPtq+l6SAQhS6CuHougut1Ve6ec+3N711lZrFYONtlbiXJsGqwOuhpvNlkSMLMESAEDVhLeQJorWuS2gI0gEFMwNEc18slFFwIrPfsbtIa++67IPXn7t/TfcFuouR0UOQz2WEtmH3VaZkQxAqEJOBmwu/dDgi8+odDzcz31kq1ZGvsK95+UWBdqaoiFrz9y5AM8vVUgwAgA6J8yFNFS7oaNIBLTGQfecCe2BmqNV3T5+R1sgOFtvudFtZaK2QFQELOXjZRoYWoUe+0oGHEv7hQOBCL012ezsAbdVPkpiaIV6uKo5BE3veZkTSGk1QMg39NkDIGEGS3pLn2AEAHRaaNdPK8ymkXArUFF5JAJawytY6NmjHOfp+eLn3VY2f3z/dbeFUCy/eLnbah+1BPJMIpEEyEKDdqtRFSA98dfkBBdqCIc94jZC1Vfant6zsxr0GnIVUNWqARpWuPe+nKIo7OSXf/IwvGRTlWZJAAA6IbzvNmtCXnyCiiMR0AJRFGnYVuaTjdra+K5qx1m+791HH3/kthCKL3/hS25raVPT77mt5my9ea3byoy2QFlVpypAVsQXaofNpofKG6hCdRzaHn5CUoHRsrXVSpMXYSf8bPBJoGZsKGXCddOeofifga9W9zxuoii8hFNVZkkAADokCvEaqryLZ1B6JAJax2tFrGeLEszTc5lfRQCtgcLikwSQP//1b24rP83l8GzJRVsgH6oKsHbY7VWDtdvMwAitghCC0M9FPeaiEq3wVoAxig67vXAtW1bt7yBrDpSqBYy+C2zgswHk427PwH6QCadqzJIAAHTG6a4wr6FCnzGEyiIR0DpeJ5vN62gPhHq68Qq/uOrkH950W/nlGNJNEsDXr3aoKkDVUVUSH6xdx9wqUKAzyrEyfLMZeKgc7TwumlUSIPTVxlPmqcGqnU/PpxZBh0ux8jv5GbvCTx6pnZQS8z68EwdtoqQLswIAAHmk34XhtQdSVQAtaNEBJAJaJIoinWwyBw8VlNzMrADU0FeuWO22spl+989uK78cbYGq0vO+vazd4raqRQGJgZGTpQl0olpKszLcHgi+gmZgRP3dwy/Ltvag26o6DWkPP8B+0exE/M/wg9LW+rc0TIMlYZ5jlCiqAp13dA1BSwgAaJ8QW9+JKiKr0P5O98UDIx9wf1wOJAJay+vGjaHBqJtLLl5u+lZ+0+0tbfq9vySPZmhIsB4epiP/YXuQX+3QBVeYF13N60kDnSMT3MyjrdKV4SVJBnRNBJsMSJMA5bhZqXpboHP1ub9NmNKfrRwt4iKb8/s3CnUmUm/p5/WkARI9ekwUTSS/D/MPAKD17GyoiypWlGIRxGKSa32r7+f4+8zdH1PFFzQSAS3keopnLuXW0GDPACVQan092ZMAMnmi+bZAVAO0WXe3qgKqMjh4IX3JzXzZKwQUiOjqutXtIXjBBurOpxYq4SUDypQEqEdboPNpVdlEUAFS/SzlOm6mzdjOfIsYQu2lLMm8npJ+1yY/tz03yaXf56LZk7SGAIAWS78TQ72eCnsRxGKSa/z4Wj+55v9En5nVdxvtdEMVuWe0iLVWB3/mISCjkyfMlkeed3vIYmjgG2bXwNfd3tLW/q//5rbQaY/fstfc6NEaSJ8NfUby6rnsc+bkz+52e5ld6lp9IS9dBJRhqGIxZkwUjSarTvIGYdpJwQdrlAAIN7Aytj3ftYoqNZSkCZW1/a5qxp+CkgoenXvRHbhoixl7YNTtdEb6vmnFUokCiU28bwqm62asvKZMd/fGjidC0uNG72U5KgEkivabQw8Muj1/AyNanRhwcDqA84mP9PtI7+li5+zJZPFE/RJ/7VH+82E9+FwbhXx/Edlhc2hH54KgoV8D5722b1b496Sj8XtTnta6CycBzjcVf64Hc9/zoCWoCGg9r4tUzQlQsBLZzfz1/3Nb2Xz5C19yW+ikKy+53CsJIOOvvO628tncd4PbymyUJEAB0gvhurRXWpGs8NNQYVUJqOw/pNZByarWh7TaVmWbHxhrFJgo5+rKOgu5j/cF2QMdbYOhm5U0mFum430m6NXZrddrZmePdXS1tM7fadKtPEkA6epqspox9KojtR4oSWWAfs40ILfUuU8rKI/Fx1x8DQEAKFzXstATyOk9WhlkSwJIb/IdSCu8oJAIaLEoirSqw+uEs/WWG90Wspg69Z7byubGK8p1L1dV9669021lMzX9rpn569/cnj8N5M7RFqguAxrbYK6ag4MX15MkBdLWQR/Ej/giaM9QElhq14WQ/n8pqJAG/k+ai2Y/SAIoaTCUi7Ey6+4edlvlkbbBUKCrvcmxpDS561i8Va4LAFUXpUmfOluRJCy1Qr2d/WZ1jtZNa7YAbmiabyeVrrYP/NhzycWQJeee89oBLW5FfMzti4/3Y8G1VAOAsku/G0Nfma5kwOGgg+ZJIj5TEuAsWuEFhdZAbWCt1Q2vPiiZKNi56sePNxX0rBPfdi9/fP8N88PD97g9dIKGBB+502+xWbNtgXxbSMWmoiha47ZRBAWkdYOLBl2MTsfvyZQxc3+Ov5KnzJxNAy9nlk0tGQCcH0yNunpMNNcTX5R9Pv7SUfBAAbNqDGmiNdCFBd++Y1GT8Xsw3NJS4bQnt0rAy/lZ6O5e1VRAt5qtMEaTJFir2qfoxvviM9uMjbbGeyVNlhbUNif8FgoN4bXU0XGUDn9s7vOnFk8fdw2TECwArYHKgdZAxQj9GrhTrYEkbYuq83Po4u+0uY1BtZpNrpHmdsWf02Yr18bj7+3BoL63a4aKgDaIokhfZpk/wFq5vO1mqgKymn7vL15JE7UG+opnSxoU6/YbbnNb2TXTFihnNQBDgov2qx3743+GvgqjnRSc7EsupnQjo4tSXbTroZX7AyN20Ufj/za50LcH0v9GcmGmG91qJAGwOGvLfJ5Kb1IVnFHAvqiVT1o1ruCAKmDSlbhl/SyMcoO0oM3JADpVORW5qkyrr/Xf1Gq1NLBU0iRAge2kwm+h0BBWSx39HGk7qeaDzp2qogKAqjq0Xd+RZbi+iq9fu44l17QhVAfoe0jfR80nAWQDrfA6i0RA+3jdrCtoqeAlspn8w5tuK5sHvvYjt4V202yA22/4ntvLRpUAzVTIKLHm+XmajtSSAcU73b0x/icr24AipKvmyp5c60sC9mny63ByU+AT9NLNkQLCahGidhoKEqeB3HInw8rY+qm9NruWQTpu0n7xPq1UkoTRJ8fNyeRmuwot04psJ5UmospyLXS2pU6ngub6/6v//2nlY5HHUY9LmobdKgIASiMqzzWWrmkVgE+qXDtA10tatJMsPCv02ppWeB1Ea6A2stZqdUjmD8/w2MtmaOy3bg+L0ZDlA/d9x+1l88yfXjC7jux2e2iX4XU7zfprbnJ72fQPHzKTJ/ySPQ1KAJz86d2+iYDhKIo6V85ZdelwIQVdgKXRGmhxof+ezVEgcrFVW1VdJTsaH/fNz1WpbysMVeFeKBiuQGp1bzibbSd1PgUAlFwrn/jcGh0spEXSUtIWZGol1Y7jaib+7lBLNVVYwgetgcqB1kDFCP3asJOtgRqSRQClWzQyHX9GHjZnlrV+hlR6DOm7rT0tSPWZ+XjZflrhtQcVAe3llXlUVYD632Npahvju2JcwWgFpdE+asvkmwRQtUfeJIDkqAbQlw83WK2U9DqM6jg8GCheesNcTCuQ8OgGTYGbCz2qaIZqgKYpILvQ8aJHlVedFd9OqlxVAfPFf2urIfkfpFUfBa82VDVJOoS/MYC/XcdVYwXlRFuHZwNA5ZSoKuAsVYjtS9rPFd0iUfRd2aiUTBNJ7ZtD1qh8UAICLUcioL10o545w6Xg5a6Bb7g9LEZJgDw95BWU3vvtB5PhtWi97TlaMh1sYkCwPkN5ZgNEUUQmutXSVXq0XwKKoIFbqIbIPsxsAOTSqgRSuRNTK0zSz7jrWBK0V3sdrSJWoCFrmx393yZtpJLZI2rRY92gyU62ktJchJPJzwQA8Jfei5b1ekvfPY0WiZodN/HJd1vWJLGC/sn3W/LdlrZa1HdlOgOgU4lmWuG1Ca2B2sxaqws2rxK2VT96PBmIi8WpeuLkz+52e37e+ugdM3Rkt/nd28fdKyja+mtvMsPf8qvA0HGv4z8vtYtS2ygPSgCsIhHQRpRqYym0BspGF/Khlsgjq2lzuntNYWXRnF/rpJh2UhdS7fOLAkHnB4MUBCnLinu1ithS6PdJFXE+LAdaAxUj9GvgEFoDiZK8aWK3inQtqVaJ85WpPWL880eDbWnxV0NUBLSfWo543eAd+JFf7/u6UtBYQ2XzuHL55eaxW/Ym1QEaZotiqeJi+9fuc3vZDTcxI0OJIc8kgFAN0G7p8ODzL1IA+EpvOFlJXmYK5tEbFf5a305KfXure35RwF8B4vmPsiQBJF1BqXYOrKAEgOwObVfHjqomUfV9cP53W5naI8Y/f9Lij1Z4LUAioM1ckPHhdC+bvuuuMn3XX+X2sJjBgxPeswLm61v5TfPr//GLZHYACYHi6P30bb+k2QB5EzuSI4GmzyazAdpNQa/T3f3xFskAoFkKJKOcomg/K3qRSzvaSem7OjK0IAuZ2jmob3TRPaMBoMq6u3XtzCKMcNEKrwVIBHRAFEXeq/bU4gRLUxJgyyPPu738NDtACYHHb9mbtLRBfnr/lGDxNTz2stvyt+GrVycJNE9UA3RKsgJ2joswoFkKJCugjLKZNh93MSAYecTHTrJav/XSlZNVHUxeFStcz2hWUAJAFkqkK6GOsKkN2MAIw4QLQiKgc7xu+NTmZIjBwZloaPD+5466vebceMXqpK/9kTufpkogB71feVoC6W84eeJNt+dHA4L3bdYCcy9KzBE866SxnVPGzOkPRzIAaMahB7RqlwqbMqElEPLSKv12HjunWTlZElpBqYCJhj4CABaTttekKjN8vbTCKwaJgA6Josh7SvnWm9cmCQEsbXB0oqm2MudTWxtVCTy58VFz79q73KtYykN/96B3SyBVdejvl9e2m2/M8zkZphogACQDgIJQYVMaGihISyDkM+5W6bdP2iKIFmTlsCK+4dxKsAQAMqBFUHmoFd5/SmYgICcSAZ3ldSGtlc4MDs5O8wLUZ75ICmrfu/bOpGWQb4C7bpQw+fIXvuT2snv4uaPJ4Oc8enu+aHYNfN3tZTblEnMIwdlkQFWHEgKtp88RwboyGHer0ABfmq/Tmc+4kg+0ICsHqo0AIJukRRDXzqVg7WDLZyNVHImADoqiSCvAvFaBqe+5+p9jaVpZ3j90qNDKgAa1DHqMZMAFaSaAEia+pqbfNUNjv3V7/g7cl2ueA8PvQqMg5unuNfEW7U2AvJJgnaXvfLh0nuOGE/koWNHJAG/agoxKlpBRbQQAfkh0l8F4/N3G36hJJAI6z/smUIODVR2AbDQ8uJnBsxei1e5KBuBcmgugeQp5bHnkBbflTzM0VBHgadwl5BAaBThOd6sygGQAkFe62pyKp/DMmO7ujazURS4KUrS7JdBCTsfHMN/RoaLaCADySBPdDMYPE4toCkIioMOiKFJJi9eKvaRF0H20CPKhVeb9w4dyt5y5ECUDmBlwliok8swFECVrVBGQR86WQArAUA0QMgXJxrarMoBAJpDX2HZdMBOsC0f83TPXT0kzcppyQYrOSxJZzCMJEIESAGhGeg7l2jks6TUHi2gKQSIgDCpt8bohVHugzX3Xuz1kMXniTbNm5xNm/3NH3SvFUAscrYKHMdu/fl+uuQAdagn0sEvEIXQKZKoXIIB8qK4JRZoESGahAN7SSpKQMOQ/NGk1JYESAMhP51CunQPD9XORSAQEIIoiXax5B7n23dVvei77nNtDFpobMDg6Ydbs/Hmhg4Tz9MOvGlVGrL/GPyCvv0kHWgJNx587SqbLRL0ArSXYAOTBDU0ISAJQ3dWkQCtJSAaEIj3HkAQAgObpXJom3zmndly0hSRAsUgEBCKKIvUh8+pFphZBh3fc6vbgQyvQNUhY7YKKSAgoAF7nwcHrr70pdzJk8OBE7pZAfddflaclkFAyXUYaetfNEGEgF5IBnUQSQKw9GP+TZEAugd8EkwzoNM4xAFC0JPnOd1tn6frnAa4dC0YiICyqCvA6yWgltFZEIx+1C2okBEYnT7hX81EwvI7UCmj4W/mGA+s9z/u+J4mw7bkSYfsjBgSXly7INDcgsl6zVQDEziYDOAe2DwG6+U5361qX98JLSW6CSQZ0CucYAGgVnVtPd6+KtzjHth1JgFYhERAQ16/cO7ilFdFaGY38lBDY8sjz5tItP01aB+VZof6VK1a7rfpQEuCxW/a6PT96j1UNkJeqYZQM8JTrM4YAHdox5FoFMecB8KFkwNh2fXa4sG69NDBKgO6spG0JA2azK9lNMMmAdiMJAACtRlVtB5AEaCUSAYGJokiDg71X6mllNPMCmqd+9RomrBkCSgj4uDbHkNwyUyskJQHytERqzAXQcx6qgum7Llfya0v8GePmtCrUKuh095r4xKnzJgAfDOFuNZ2fCNAt5GywGIsq6U2w/r6snmyHqaRdIucYAGi9s8kAgtOtpQR3/N1GEqCVSASEyXsoCfMCiqeEgM/8gCuXX+62qq+ZJICo+qIDcwFoCVRFuig79MCgqw7gZrh6uAhsJYZwt4aSk6q6SFa/Y0FJ8DJiXs8FlXwlHAGTVhtP3t8Qh0cDQFXpu42FNK2ULhQhwd1yJAIC5FYse98caV7Agfu+4/ZQhCMn/t1toaGRBFBboDyGx14246+87vb8qOol51wAWgJVnaoDzs4OIPhWfqOmu3tVcrGN1jo7hJtEafNmTGQ2JslJLC0JdJMMOM9Mkpyrwkq4RsAk/RvzvVwUXeeMbd9IohEAOoSFNK2QJrhJArQFiYBARVE0Hj953wRs7rvebLt5rdtDsz7v34O+0ppNAmgw8NDYb92en0bVS465ALKRlkA1odkBaUsCViGW09kEACsd2ycdwt3PEO6mqBXQKnNou67fkFUS8J5TIorv6MZKOCXnqiT9G1O117w0SaTrHABAZ6UtanXPyXVfc/TdNkiCu71IBIRNK8q8AyH7NvebDV+92u0hLwWcN6+73u2h2SRAs8OBVe2iqpccBqMo4uazThqrEBVQZpVzGcwkAWgSAJ2XBJiSoCznzOwaNzC0AsorWf1V+0DxaKVXwun3Olu1B39aKbmqckkiACiz9J5zY1INyoKGPNLrP1VYoK1IBATMrWDWScVbE0FTONtuvtFr9fmrbx93W9W0/ev35U4CaChw//Ch3MOBdTznTG6Nx58jvljqqrHKOS3d5OY5PPHfRH2wt1+aBKBJAIShEbBL+59yU7M4BW8VnON7plk67tKe8nVbWRd/xpLz4JZaJJJ0ridJ72M6CTCxUhIAwqVqUCrSfaSLwHS/UdUFEIEjERA4t5LZu3+qAtgTuzblbaNSe3rftnq2WPrj+/n63pfB8LqdZv01N7k9P80mAdTqSi2vclBQkd7DaMwPaCQEuEDrrPjCL9rvVv9Xow92VSm4zU3NhUwm55O6BG/bpbGyrj495dP5HHU7D37SiixZ7EQC+EIUJDkdHx+0GwOA8KXXMBokzAK0xY0n1z60uesoEgElEEWRbhC8bxJIBuTnWw0gv6toRUAzSQBREkBtgfJQAkCtrnJiLgDOlSYEGi2DdE7l+GifUbeq8dJkkCqr/8uhcVOTfmYIRiVBy2T1dvX6uIdEgfFq991trPLur/W5UAHuse2rqD76lHRWjoIkJBoBoFwaC9DSRQ3c75zVWESzkfvAziMRUB66SPYum1F7IJIBfvJUA7z10Ttm8tRLbq8aNBPgyY2PNZUE2PLI87mTAGoFpJZAOW1x1TTAp6WrEbekgabkIo1jpTXGk/f3dPelyfvNqsbySj8zG2tcVdNIAKyiiqVNGtUB6TFXlXN0WgrPKu9zNaqP0vkBdQ4OMCwfAKpC14u6biQh0EgAsIgmICQCSsKtbM41hETJgMM7bnV7WMq+u/q9EyePHn3CbVVDs4OBRUmA0ckTbs+PjtkmkgCjrooGWFwSaEou0ta4AalUCTRHF7mNlf9R/Iif4/eXFY3VUb+qmsbNCwmATkmPufj8XOob6UYCgFXeF6L3RO/N2aBJXRL0OhZIAABAVTUSAunChjotAhglARAuEgElEkWRLg5zDQ/uu+6qZgKrtdFz2ee8+9GrGuCZ115we+UXQhKgiSqWqfhzohtIwE86IDUdXJv2LSYpkI0CpYNJIiUJlrLyvxaqXVUzfc4cC25ewtC4kU7Pz2X5m0wn50cSAH7qkaCPz5nxuVPHBgkAAKi+dGHDxuT6sroVcPE1dPy7NZLbXEMHK3LPKBFr7eb46UC650fBWQVpsTAlS3wTAbte3F2ZREARSYBmjrEmkwD6Ml3jqmeAYmwa2RB/Va6LT7zxs+lJX6y1yfgC74iZi59Dv7j7wb4eM3dG35dh6lo2Wqngz8DuXhN131XSz4q+N8bjq+KnK5XIGnhos4nmwvlbFHnMJ5/vua0BHm/psWTtQW6AC6TvYmtU3qy/94rktfJRknHcdHU9TOC/A0I7H2JhPt8T39/TZ7pMn9sLS6evk0O/BmZQbErHcBTdFW+V+7stWaAx93CysA6lQCKgpKy1++KnbemeH5IBC1M1wMmf3e32slE1wHefusPtlduVl1xuHvq7B8uaBNCNd3/EXAC0ki6qZ+fiGw67Lt7TjUfVbyj1eZqKv3COm8hOcnGHzJQUsJFubhS4C/MmXcd2FMU3LvYIVSwl1/kkVHoTXLVEUqjKlaBX1dzTZtmycYL/AIALSq5log3x9bOunXvTF4MVX0PH323WjnN/WE4kAkrMWquqgFyZXpIBn1bnagAF/1UJoIqAvDqYBBBVAvAlhPZqJAYiszo+IeuCLdSA51IUnNBKxSljzXFj56ZZyYpCNVbt2UhJNH1WOrHqaTI5xhX47+qeIihXUecmbHWsteJmmiRpKML6HtY5RcGR46WomgMAhGnDvhXm4lldy2hhTSevnUULLvXdllaEn1k2RavD8iMRUGLWWp0MJuJHrpucqel3Tf/wITPz17+5V+pLgehju//e7WVTlWqATicB+q6/yhzefmszSYAtEcOBEYqkFHc2PicnF24r41e0WrGTF28NaUAiCYTO/TnemDJzdoZABTpCn5MzZ3pccqDxOWk8mpHerOhZwTgd50psEaitt2SVXVd8bCWB4vgpuanOwh1HwrFUGvP/3sWeX6RxjokPiSQoku4TGAEAtNL8a2fT9XmX/Nb9Za5Y4ALOvVdU0H/ZsmkWzlQTiYCSIxlQjImhTclAZR/3PHu/+d3b7v6wpNZfe5PZ/rX7OpYEUAVGk0OsSQKgPNJ2KStMV/xoBKTERqvjf+ZNFGgo0ym3Hf+3uqaTYJVw8YayanxWsiKhBSAr3/OLcI4BAISskSjwQRK7tkgEVEARyYCNe5420+/9xb1SL1qRrrY0Pl59+7i5+9n73V45KQkw/K2dbi+fDicB9kdRNOi2AQAAAAAAAFxAl3tGiUVRpCzexviRK5uXtsW5M3muo10DX3db2T169KDbKidVAXQyCaAEQJNJgFGSAAAAAAAAAEA2JAIqIooitX/ojx+5kgHqz65V8b7DcstO1QC+LYFUDVDWlkBqATS8bqe5/Ybb3Cv5DI+9nCsJoOMsz1Dm8ygJsMVtAwAAAAAAAFgCrYEqxqZDQ9QmKG+/6STIOzT2W7dXbRoQ7FsJUdbZAEoCaCiwhgM3QwkAVQP46rnsc+bwjlubrTwhCQAAAAAAAAB4oiKgYqJkynf+ygBRqxyt2tbq7SrTqnTfoPTkqZdKmQRQ8P/J7z3asSRAQe2nSAIAAAAAAAAAOVARUFFFVAZoiPCWR15Inqvo5M/uTlap+/juP95h3vrwHbdXDl+5YrV56NsPJhUBzcibBNh281qzb7NyU00hCQAAAAAAAADkREVARbnKgFXxQ8+5aPW25gZs+OrV7pXqUDWAbxLgmT+9ULokwPprb0raATWTBJj569/Mmp0/904CqKJErYBIAgAAAAAAAACdRUVAxVlrVRGgygBVCOS2/7mjZnBU/5nyU4BabWqqXg2gocDrr7nJ7eWjJED/8CHvqhAlkZQE8H2PF7AliqJRtw0AAAAAAAAgByoCKi6KIs0K0JLs3JUBovYueQbrhmjbzTdWuhpAq/+f3PhY00kABf/X7HzCOwnQOFZIAgAAAAAAAABhoCKgRqy1B+KnzelefqoMUIVAGaka4ORP7/YahPzhxx+Z7z51R/IcOg0D1jyAK5df7l7JR8F/VQKoIiArBf4P/Og7pu+6q9wruSl5tTGKosl0FwAAAAAAAEAzqAioEddnfTjdy0893yeGNhWx4rvtVA3gkwSQX/7+n0uRBGjMA2g2CaBZAL5JgLQK4M6ikgD9JAEAAAAAAACA4lARUEPWWlUFqDqgKQoUD4/9tjTVAVWuBtj+tfvM7Tfc5vby850FUWAVgKh9lZIASgYAAAAAAAAAKAgVATXk+q6viR9NBVwVUFd1QFlmB+y7q79y1QCaB/D4LXsLSQJseeR5ryRAgVUAomOSJAAAAAAAAADQAlQE1Ji1dkX8pMhvb/JCk7SaXBUCPi1l2kUr10/+7G63l81bH71jfvjP9wabCChqHoD+XhtHnjaTJ950ryyu7/qrzL67+opM/gxGUbTfbQMAAAAAAAAoGBUBNabV1/FDlQFajd00rRBX653Nfde7V8Kxa+Abbiu7R48+EWwSQPMAntz4WGFDgbMkAZI2QPd9x0zs2lRUEqAxD4AkAAAAAAAAANBCVAQg4eYG7IsfqhJomgLMgwcnM68ybyUFrdW+yIeqATQbIDRqBbT96/eZ9dfc5F7Jb/IPb5qNe55esoJD7ZQ0ZHnrzWu9WystQsOAN9IKCAAAAAAAAGg9EgH4hLVWLYI0RLiQVkGiYPOWnz1vpt/7i3ul/SaGNnn3sd/14m7zzGsvuL0wXHnJ5eahv3swaQnUrNHJE8lMgKWouiPPbIUlDEdRNOS2AQAAAAAAALQYiQB8irVWlQHb0r1iKPCs+QHtTgion71a2fj44/tvmB8evsfthaFv5TfN8LqdSUVAs5QA0N9jMUoAqJ2S2gEVaDp+bImiSNUAAAAAAAAAANqERAAWZK3ti58Ox49CWgU1tDshkKca4J5n7ze/e/u42+u87V+7z9x+w21uL78sQ4FblACQ8fihJACtgAAAAAAAAIA2IxGAC7LWKgmgVkEbkhcKpITAwSMnWjpDQEFtDbf18erbx83dz97v9jqryFZAmtmgeQALJWDU9mfDV69uVQJAgX8lAJQIAAAAAAAAANABJAKwJGutEgFKCBRaHSCaIXBw8sSSrWryOPmzu70D26FUAxTZCkjv7eDBiU8NBdZ7s7nvhqKHAM9HFQAAAAAAAAAQABIByMRVB+yKH4XODmjQSnUlBPY/9+qnAtZ55KkGmDz1krn/Nz9xe51TVCsgGRydiN/To24vpbkJd627PnmPWoQqAAAAAAAAACAgJALgxc0O0DDh3uSFFtAK9qdfed2Mx488tLr95E/v9l7l/t1/vMO89eE7bq/9imwFdP48AL0Xm9ddb7becmMr2v/Mtz9+DFMFAAAAAAAAAISDRABysdYOxU9b40fh7YIaVCWgZIAqBdTjPquhgW+YXQNfd3vZPPOnF8yuI7vdXvutv/ampBKgiFZAeq/6hw8lyQCt+r/1q1cnMwBabDJ+DEZRNJXuAgAAAAAAAAgFiQDk5toFqTpgc/JCC2VNCuSpBvjw44/MDw/f25FqAAX+t3/9PrP+mpvcK81RG6AjJ978JPjvWxWRw3T8UAXAaLoLAAAAAAAAIDQkAtA0a63aBCkhoLZBLddICqh9UKP1TcO+zf1m281r3V42jx59In4cdHvtoxZAQ9/6vwppBSSqAGhD4L9BrX8ejh/7aQMEAAAAAAAAhI1EAArTjvkB51Pwe/IPbyar4JUgOLzjVvdvslE1wHefuiN5bicNA1YroJLS6n+1ASIBAAAAAAAAAJQAiQAUzlqrVkG74kdP8kLA2l0NoFZAe7/9oLnxitXulVJRAkBtgNQOCAAAAAAAAEBJkAhAy4SeEHjro3eSaoB26Vv5TTO8bmchA4HbjAQAAAAAAAAAUGIkAtBy1toN8dPW+NGWGQJZKRHw2vtvmD/GD7UGeu3915PXf/f28eS5SGoDpHZAJaK2P+PxgwQAAAAAAAAAUHIkAtA2boaAEgJKDAQvTQ684fZSSh689eF/uL2FfeW8tj/LL15e2EDgNlDQX72SGAIMAAAAAAAAVASJALSdtVatgpQQUOugFXoNHTcZPw5GUaQ2QAAAAAAAAAAqhEQAOsrNEbgrfgTVNqgmGu1/Ho6iaCp5BQAAAAAAAEDlkAhAEOZVCahtUJDDhSskWf0fP8Zp/wMAAAAAAABUH4kABMcNF741fuiZ1kHF0Ir/RvCf4b8AAAAAAABAjZAIQNBICjSF4D8AAAAAAAAAEgEoD2ttb/zUmCegbZxLbX7U9udpPRP8BwAAAAAAACAkAlBK1lpVB6hKYF38UGKgrnMFFPg/oucoirQNAAAAAAAAAOcgEYBKcMOGVSWgxICelRyomsaK/+N6JvAPAAAAAAAAIAsSAagsa22jUmB1/FByQI+yzBlQf3+19lHQX9tTtPoBAAAAAAAAkAeJANSKaymkhIASBI0kgV5r7LeTAvxa5a/nP8cPrfCfiaJI+wAAAAAAAABQCBIBwHlcJUHDhaoI1ILofFqxfyrdPIdeb6zmJ9APAAAAAAAAAAAAAAAAAAAAAAAAAAAAAAAAAAAAAAAAAAAAAAAAAAAAAAAAAAAAAAAAAAAAAAAAAAAAAAAAAAAAAAAAAAAAAAAAAAAAAAAAAAAAAAAAAAAAAAAAAAAAAAAAAAAAAAAAAAAAAAAAAAAAAAAAAAAAAAAAAAAAAAAAAAAAAAAAAAAAAAAAAAAAAAAAAAAAAAAAAAAAAAAAAAAAAAAAAAAAAAAAAAAAAAAAAAAAAAAAAAAAAAAAAAAAAAAAAAAAAAAAAAAAAAAAAAAAAAAAAAAAAAAAAAAAAAAAAAAAAAAAAAAAAAAAAAAAAAAAAAAAAAAAAAAAAAAAAAAAAAAAAAAAAAAAAAAAAAAAAAAAAAAAAAAAAAAAAAAAAAAAAAAAAAAAAAAAAAAAAAAAAAAAAAAAAAAAAAAAAAAAAAAAAAAAAAAAAAAAAAAAAAAAAAAAAAAAAAAAAAAAAAAAAAAAAAAAAAAAAAAAAAAAAAAAAAAAAAAAAAAAAAAAAAAAAAAAAAAAAAAAAAAAAAAAAAAAAAAAAAAAAAAAAAAAAAAAAAAAAAAAAAAAAAAAAAAAAAAAAAAAAAAAAAAAAAAAAAAAAAAAAAAAAAAAAAAAAAAAAAAAAAAAAAAAAAAAAAAAAAAAAAAAAAAAAAAAAAAAAAAAAAAAAAAAAAAAAAAAAAAAAAAAAAAAAAAAAAAAAAAAAAAAAAAAAAAAAAAAAAAAtIwx/z/Oz5WuMf9r7AAAAABJRU5ErkJggg==;" vertex="1" parent="1">
          <mxGeometry y="10" width="124.03" height="30" as="geometry" />
        </mxCell>
      </root>
    </mxGraphModel>
  </diagram>
</mxfile>
